<svg width="110" height="26" viewBox="0 0 110 26" fill="none" xmlns="http://www.w3.org/2000/svg">
<g clip-path="url(#clip0_704_11029)">
<path d="M24.9034 6.0916C24.5929 6.92549 24.4959 7.96392 25.0004 8.74667C25.3458 9.28162 25.9977 9.50976 26.1879 10.0486C26.3858 10.5403 26.2577 11.2287 25.7882 11.5079C25.4855 11.6928 25.0082 11.6141 24.6511 11.5001C20.7667 10.2256 21.469 4.80143 24.0885 2.51611C29.2652 -2.08994 38.73 -0.0956915 41.5163 6.32367C44.3181 12.8138 42.4981 22.7812 35.2879 25.393C33.0333 26.2898 30.5769 26.1324 28.33 25.2081C27.7246 25.0586 27.1347 25.3064 26.5604 25.5228C24.8413 26.1364 23.2658 25.688 22.3538 24.5984C19.9246 21.4517 22.8389 17.353 25.7804 15.8072C26.5953 15.3666 26.8747 14.6272 26.9446 13.7579C27.2395 11.4371 27.5073 9.08101 27.7595 6.74062C27.8294 5.77299 28.4891 5.13971 29.4437 4.94697C30.5458 4.66376 32.2455 4.49856 31.9506 6.186C31.2754 10.7685 30.9455 15.4335 30.1539 19.9727C29.9715 21.1331 29.1488 22.6632 31.0115 22.6632C37.9927 22.9542 39.7739 11.98 37.0381 6.95302C36.0835 5.29311 34.539 4.06982 32.7616 3.46407C31.1124 2.90945 29.013 3.00779 27.2783 3.67647C26.2538 4.16028 25.3885 4.98631 24.9267 6.0326L24.9112 6.08373L24.9034 6.0916ZM26.3237 18.2498C25.9938 18.2223 25.6213 18.6275 25.3264 18.832C24.4843 19.5439 23.6073 20.5037 23.6538 21.7073C23.6267 22.5412 24.461 23.1037 25.1634 22.612C25.8503 22.1203 26.1529 20.6768 26.3004 19.5007C26.3159 19.1231 26.475 18.5685 26.3431 18.2695L26.3276 18.2538L26.3237 18.2498Z" fill="#19254F"/>
<path d="M47.3582 9.78314C47.366 9.97587 47.366 10.1961 47.3582 10.3889C47.1681 13.1502 46.7063 16.1199 46.3958 18.9008C46.2988 19.7623 45.5809 22.5314 46.8382 22.7517C49.3296 23.1843 50.2299 18.6648 50.2376 16.8791C50.2376 16.6942 50.1523 16.5093 50.1523 16.3166C50.1523 15.5181 50.2221 14.6999 50.0747 13.925H52.7135L54.4753 18.7081V18.7868C54.5529 19.2076 54.6499 19.6207 54.875 19.9983V20.0769L55.752 22.5471C55.8645 22.6455 55.9072 22.3111 55.9344 22.2403C56.0547 21.9335 56.1168 21.6936 56.1517 21.371V21.2924L58.8332 13.9958C58.9884 13.8031 61.0374 13.9801 61.4371 13.9172V13.9958C61.5341 17.8821 61.3673 21.784 61.4371 25.6703C60.8628 25.6073 60.1526 25.7489 59.5977 25.6703H59.5201L59.5977 17.5635C59.3881 17.5281 59.458 17.6067 59.3998 17.7208C58.8953 18.8104 58.5654 20.2972 58.158 21.4497C58.158 21.4772 58.1075 21.5284 58.0804 21.607C57.6031 22.9523 57.0831 24.2975 56.6213 25.6506L54.9487 25.6231L51.9917 17.5517V25.6585H50.1523V23.3889C49.9621 23.3456 50.0203 23.4243 49.9699 23.4951C48.895 25.0881 47.6182 26.0007 45.6313 25.9023C43.1672 25.7804 42.1 24.0379 42.1543 21.725C42.2319 18.1299 42.977 14.401 43.2137 10.798C43.8734 9.70053 45.3481 9.52353 46.52 9.6022C46.8072 9.61793 47.0749 9.72413 47.3621 9.7674L47.3699 9.77527L47.3582 9.78314Z" fill="#19254F"/>
<path d="M77.3435 13.9594C77.716 13.8885 78.5503 13.8885 78.9733 13.9594C79.2062 14.0026 79.276 14.038 79.3808 14.1954C79.9357 15.1197 83.6495 21.3345 84.0569 22.0111C84.0841 22.0386 84.0841 22.074 84.1074 22.0622C84.1501 20.4259 84.1229 15.0646 84.1695 14.0341C84.2044 13.92 84.2898 13.9357 84.4295 13.92C84.6041 13.9121 84.899 13.92 85.194 13.92C85.4734 13.92 85.9041 13.8846 86.0516 13.983C86.0671 13.9987 86.0671 14.0341 86.0787 14.0695V25.2876C86.0787 25.6299 86.1137 25.6731 85.7993 25.6849C85.4074 25.6574 84.6119 25.7715 84.1617 25.5709C83.3972 24.9454 83.0868 23.8205 82.4892 23.0456C82.2913 22.7624 82.0313 22.4398 81.8838 22.1488C81.1465 20.6973 80.2462 19.2813 79.3691 17.9203C79.2993 17.8141 79.1091 17.4876 79.0587 17.5348C78.9966 17.8692 79.0587 18.589 79.0315 19.592C79.0238 21.0081 79.0471 24.7527 79.0238 25.563C78.9966 25.6613 78.8918 25.6613 78.8065 25.6692C78.496 25.6771 77.7315 25.6849 77.3823 25.6692C77.262 25.6613 77.2193 25.6338 77.1999 25.5905C77.1727 24.8589 77.1999 15.5052 77.1921 14.1875C77.1921 14.0734 77.1766 14.0026 77.3124 13.9594H77.3473H77.3435Z" fill="#19254F"/>
<path d="M65.07 15.6918C69.5094 10.4446 76.4945 15.975 74.4572 22.0207C73.5996 24.7898 70.5805 26.5756 67.8136 25.7496C65.7569 25.2579 63.9873 22.8585 63.7351 20.7659C63.51 19.0431 64.0377 17.1708 65.0351 15.7351L65.07 15.6918ZM68.7837 15.4833C66.5795 15.7469 65.524 18.0086 65.6443 20.0737C65.687 22.6855 67.8485 24.9 70.4602 23.9442C74.302 22.5124 73.2891 14.8894 68.8458 15.4873H68.7837V15.4833Z" fill="#19254F"/>
<path d="M94.3178 13.6794H94.5623C97.6163 13.943 99.6032 17.3021 99.4441 20.2128C99.1996 24.8268 94.0655 27.9499 90.3983 24.5908C86.4168 20.9523 88.5861 13.4001 94.3178 13.6794ZM93.4252 15.4809C88.881 16.1142 89.3933 24.52 94.2052 24.1305C98.9862 23.7451 98.4312 14.7847 93.4252 15.4809Z" fill="#19254F"/>
<path d="M9.43362 16.0262C9.53064 15.3772 10.2757 14.0319 10.7181 13.556C12.2277 11.9118 14.6492 11.3847 16.7369 12.1478C17.614 12.4743 18.4638 13.556 17.9865 14.5118C17.5092 15.4676 16.7447 14.0909 16.4343 13.7487C15.1498 12.3169 13.1396 12.9502 12.2975 14.5039C11.5098 15.9711 11.5098 18.752 12.5924 20.0776C13.1978 20.8171 13.8342 20.9666 14.7695 20.939C15.8793 20.9036 16.3566 20.0776 16.1393 19.0038C16.0423 18.5396 15.239 18.0086 15.4796 17.4815C15.6775 17.041 16.3993 17.0056 16.834 16.9899C17.319 16.9623 18.2659 16.9545 18.6307 17.2888C19.2361 17.8592 18.5259 18.457 18.4211 19.0824C18.3008 19.7669 18.6889 20.1995 18.2038 20.8918C17.5364 21.8516 15.5417 22.0719 14.4823 22.1033C14.1602 22.1112 13.7528 22.1309 13.4423 22.1033C12.2548 21.9893 10.753 21.1003 10.1477 20.054C9.84497 19.5348 9.74019 18.929 9.52288 18.3744V18.2958C9.48019 17.6467 9.37541 16.8089 9.44527 16.1874V16.0301L9.4375 16.0222L9.43362 16.0262Z" fill="#E11F27"/>
<path d="M44.1047 1.33363C44.7372 0.236204 46.2545 -0.16894 47.3062 0.570546C48.7886 1.5539 48.6838 4.16571 47.3062 5.1176C45.0321 6.71064 42.7969 3.44589 44.0697 1.3887L44.1047 1.33757V1.33363Z" fill="#19254F"/>
<path d="M98.6484 14.2435V8.40625H100.763C100.825 8.40625 101.369 8.60686 101.474 8.66192C102.638 9.24407 102.688 11.1951 101.501 11.7497C101.38 11.8008 100.86 11.9778 100.763 11.9778H99.444C99.3469 12.497 99.5759 13.5944 99.4362 14.035C99.409 14.1058 99.3857 14.1333 99.3159 14.1569C99.2887 14.1569 98.8308 14.2435 98.8037 14.2553C98.761 14.2553 98.6834 14.2631 98.6484 14.2553V14.2474V14.2435ZM99.444 8.77206V11.7339C100.286 11.7693 101.179 11.7693 101.446 10.8017C101.671 9.99142 101.489 9.04347 100.639 8.77206C100.422 8.70126 99.5216 8.51639 99.444 8.77206Z" fill="#19254F"/>
<path d="M109.998 10.3435C109.971 10.3946 109.948 10.4497 109.921 10.5008L108.237 12.3298L109.998 14.151C109.835 14.151 109.676 14.1786 109.521 14.1078C109.218 13.9662 108.299 12.6917 108.039 12.6839C107.231 13.2896 107.014 14.45 105.757 14.1432C105.714 14.1156 105.66 14.1353 105.602 14.0645L107.356 12.0702C107.383 11.9365 106.191 10.7958 106.001 10.6188C105.904 10.5323 105.838 10.4182 105.679 10.4182C105.664 10.3828 105.679 10.3041 105.679 10.2609C105.869 10.253 106.025 10.2333 106.199 10.3395C106.467 10.4969 107.387 11.6848 107.569 11.7202C107.802 11.7634 108.628 10.4182 108.881 10.3041C109.106 10.2058 109.765 10.2176 109.998 10.3395V10.3474V10.3435Z" fill="#19254F"/>
<path d="M3.19874 19.9997C3.19874 19.9997 3.21426 20.1334 3.27635 20.2003C3.69158 20.6644 4.12621 20.9043 4.75875 20.9751C6.62533 21.1679 7.28115 20.4048 7.91757 18.7842C7.99518 18.7331 8.11548 18.6269 8.13489 18.6269C9.32236 18.3358 9.01191 20.3065 8.62773 20.9201C7.93309 22.0293 5.53099 22.1866 4.35905 22.1158C-1.40755 21.7461 -1.4774 12.9352 4.29696 11.8378C5.03427 11.6962 6.77667 11.8535 7.4713 12.1525C7.87101 12.3295 8.50355 12.9352 8.60832 13.3561C8.60832 13.3836 8.62385 13.9264 8.61608 13.954C8.60056 14.0602 8.36384 14.5243 8.28623 14.5794C7.84384 14.9059 7.43638 14.3866 7.15697 14.0877C7.05996 13.9815 7.05219 13.8242 6.95906 13.7258C6.17129 12.8998 5.34472 12.7071 4.26979 13.1791C2.36829 14.013 2.15485 16.3455 2.31784 18.1824C2.38769 18.914 2.77575 19.4647 3.20262 20.0036L3.19486 19.9957L3.19874 19.9997Z" fill="#E11F27"/>
<path d="M106.565 8.40234V8.65015H104.803V14.1609H104.004V8.77209C104.004 8.77209 103.891 8.65015 103.884 8.65015H102.246V8.40234H106.565Z" fill="#19254F"/>
</g>
<defs>
<clipPath id="clip0_704_11029">
<rect width="110" height="26" fill="white"/>
</clipPath>
</defs>
</svg>
