<svg width="218" height="49" viewBox="0 0 218 49" fill="none" xmlns="http://www.w3.org/2000/svg">
<path fill-rule="evenodd" clip-rule="evenodd" d="M38.6571 15.7266C37.6074 15.7266 37.1865 16.1932 37.1865 17.1264V28.7498L31.1484 34.5252L39.951 34.5408V34.5304H38.548L33.8037 34.5408L33.8193 34.5252H33.4192L38.813 29.4549H38.8545V29.4134L38.813 29.4549V15.7317H38.6519L38.6571 15.7266Z" fill="#00797E"/>
<path fill-rule="evenodd" clip-rule="evenodd" d="M52.565 12.0716H39.7977C39.4392 12.0716 39.1846 12.1442 39.0391 12.2842C38.8988 12.4189 38.826 12.6471 38.826 12.9737V29.4497L44.0015 24.5816V17.1886H52.565C53.6978 17.1886 54.6331 17.3493 55.4178 17.6396C56.218 17.9352 56.8675 18.3603 57.4287 18.8787C58.0367 19.449 58.5252 20.1437 58.8525 20.9058C59.1747 21.6576 59.3566 22.4819 59.3566 23.3373C59.3566 24.1098 59.2059 24.8563 58.9357 25.5459C58.6551 26.2561 58.2446 26.9042 57.7353 27.4537C57.1741 28.0707 56.4778 28.5736 55.61 28.9209C54.763 29.2631 53.755 29.4497 52.5598 29.4497H38.8156L33.4219 34.5201L52.5598 34.5356C54.5344 34.5356 56.2492 34.209 57.7249 33.6128C59.289 32.9803 60.5933 32.0471 61.6585 30.8806C62.5731 29.8852 63.3057 28.7084 63.8098 27.3967C64.2878 26.1369 64.558 24.7578 64.558 23.301C64.558 21.699 64.2203 20.1696 63.6175 18.7906C62.9888 17.3545 62.069 16.074 60.931 15.0267C59.9334 14.1142 58.759 13.3781 57.3872 12.8648C56.005 12.3515 54.4045 12.0664 52.565 12.0664" fill="#404041"/>
<path fill-rule="evenodd" clip-rule="evenodd" d="M111.163 32.1992L112.156 29.8662C112.208 29.7521 112.275 29.6744 112.353 29.6277C112.436 29.5759 112.519 29.5551 112.608 29.5551C112.706 29.5551 112.805 29.581 112.888 29.6381C112.961 29.6899 113.023 29.7625 113.065 29.8662L114.177 32.4428H111.054L111.158 32.1992H111.163ZM114.317 29.3374C114.146 28.9641 113.928 28.6893 113.642 28.5079C113.361 28.3264 113.013 28.2383 112.592 28.2383C112.171 28.2383 111.807 28.3264 111.527 28.5079C111.246 28.6893 111.028 28.9641 110.862 29.3374L108.508 34.5373H110.139C110.264 34.1952 110.42 33.8634 110.566 33.5264H114.655C114.801 33.8634 114.962 34.1952 115.097 34.5373H116.687L114.312 29.3374H114.317Z" fill="#00797E"/>
<path fill-rule="evenodd" clip-rule="evenodd" d="M107.783 33.1784H104.541C104.208 33.1784 103.927 33.1265 103.694 33.028C103.455 32.9295 103.257 32.7896 103.101 32.6185C102.961 32.4681 102.841 32.2867 102.763 32.0845C102.685 31.8927 102.644 31.6853 102.644 31.4675C102.644 31.2291 102.696 31.0009 102.784 30.7884C102.878 30.5758 103.013 30.3788 103.184 30.2233C103.34 30.0781 103.522 29.9589 103.746 29.8759C103.964 29.793 104.224 29.7515 104.541 29.7515H107.783V28.3828H104.541C104.037 28.3828 103.595 28.4606 103.215 28.6006C102.841 28.7405 102.519 28.9427 102.244 29.1916C101.932 29.4767 101.683 29.8293 101.506 30.2233C101.34 30.6017 101.246 31.0217 101.246 31.4572C101.246 31.8564 101.319 32.2348 101.449 32.5822C101.584 32.9399 101.787 33.2665 102.036 33.5361C102.327 33.8524 102.685 34.1116 103.117 34.2827C103.522 34.4486 103.99 34.5367 104.535 34.5367H107.778V33.1732L107.783 33.1784Z" fill="#00797E"/>
<path d="M100.532 28.3828H99.1289V34.5419H100.532V28.3828Z" fill="#00797E"/>
<path fill-rule="evenodd" clip-rule="evenodd" d="M95.1644 29.7515C95.4814 29.7515 95.7412 29.7982 95.9595 29.8759C96.1829 29.9589 96.3648 30.0781 96.5207 30.2233C96.6921 30.384 96.8272 30.5758 96.9208 30.7884C97.0091 30.9958 97.0611 31.2291 97.0611 31.4675C97.0611 31.6853 97.0195 31.8927 96.9416 32.0845C96.8636 32.2815 96.7493 32.4629 96.6038 32.6185C96.4479 32.7896 96.2505 32.9295 96.0114 33.028C95.7724 33.1214 95.497 33.1784 95.1644 33.1784H93.0911C92.9976 33.1784 92.9248 33.1525 92.8677 33.0903C92.8157 33.0332 92.7897 32.9606 92.7897 32.8673V30.0626C92.7897 29.9692 92.8157 29.8967 92.8677 29.8396C92.9248 29.7774 92.9976 29.7515 93.0911 29.7515H95.1644ZM91.6361 28.3828C91.4751 28.3828 91.3867 28.4606 91.3867 28.6109V34.3034C91.3867 34.3915 91.4023 34.4538 91.4387 34.49C91.4751 34.5263 91.5426 34.5419 91.6361 34.5419H95.1592C95.6996 34.5419 96.1725 34.4538 96.5778 34.2879C97.0091 34.1168 97.3625 33.8575 97.6534 33.5413C97.9029 33.2717 98.1055 32.9451 98.2406 32.5874C98.3705 32.24 98.4433 31.8616 98.4433 31.4624C98.4433 31.0217 98.3498 30.6069 98.1835 30.2285C98.012 29.8344 97.7574 29.4819 97.4456 29.1968C97.1702 28.9479 96.8532 28.7457 96.4739 28.6057C96.0946 28.4658 95.6581 28.388 95.1488 28.388H91.6258L91.6361 28.3828Z" fill="#00797E"/>
<path fill-rule="evenodd" clip-rule="evenodd" d="M84.9475 28.3828C84.6825 28.3828 84.4954 28.4398 84.3759 28.5539C84.2564 28.6628 84.1992 28.839 84.1992 29.0827V33.8109C84.1992 34.0649 84.2564 34.2464 84.3759 34.3656C84.4954 34.4849 84.6825 34.5419 84.9371 34.5419H90.705V33.2302H85.9192C85.8101 33.2302 85.7269 33.1939 85.6698 33.1265C85.6178 33.0643 85.5866 32.9814 85.5866 32.8829V32.1519H90.705V30.7832H85.5866V30.0989C85.5866 29.8811 85.6906 29.7567 85.9192 29.7567H90.705V28.388H84.9475V28.3828Z" fill="#00797E"/>
<path fill-rule="evenodd" clip-rule="evenodd" d="M74.2266 29.5684V34.5351H75.5932V30.1335L78.8669 33.5604L82.1405 30.1335V34.5351H83.5071V29.5684C83.5071 29.5062 83.5019 29.4388 83.4916 29.3766C83.4812 29.3144 83.4708 29.2521 83.45 29.1899C83.3876 28.9877 83.2837 28.8167 83.1486 28.6922C83.0083 28.5574 82.8316 28.4693 82.6446 28.4278C82.4575 28.3863 82.2496 28.3915 82.0522 28.4486C81.8391 28.5108 81.6261 28.6404 81.4442 28.8322L78.8669 31.5385L76.2895 28.8322C76.1076 28.6352 75.8946 28.5108 75.6815 28.4486C75.4841 28.3915 75.2762 28.3812 75.0891 28.4278C74.9021 28.4693 74.7254 28.5626 74.5851 28.6922C74.45 28.8218 74.3409 28.9877 74.2837 29.1899C74.2681 29.2521 74.2525 29.3144 74.2422 29.3766C74.2318 29.444 74.2266 29.5062 74.2266 29.5684Z" fill="#00797E"/>
<path fill-rule="evenodd" clip-rule="evenodd" d="M172.62 16.2885C172.635 16.4803 172.656 16.641 172.693 16.8329L172.75 17.0714L172.822 17.3047L172.911 17.538C172.958 17.652 173.015 17.7661 173.072 17.8749C173.129 17.989 173.197 18.0979 173.269 18.2016C173.337 18.3052 173.415 18.4089 173.493 18.5074C173.565 18.6008 173.654 18.6941 173.747 18.7874C173.841 18.8807 173.934 18.9688 174.028 19.0414C174.122 19.1192 174.225 19.197 174.335 19.2644C174.438 19.3369 174.548 19.3992 174.657 19.4614C174.766 19.5184 174.88 19.5754 175 19.6221C175.109 19.6687 175.228 19.7102 175.358 19.7465C175.473 19.7828 175.592 19.8139 175.722 19.8398C175.852 19.8658 175.977 19.8865 176.096 19.8969C176.21 19.9072 176.34 19.9124 176.475 19.9124L183.563 20.0576C183.662 20.1405 183.766 20.2546 183.849 20.3635L183.901 20.4516L183.942 20.5397L183.974 20.633L184 20.7315L184.015 20.8352V20.9337V21.0271C183.974 21.3278 183.88 21.5144 183.651 21.7166L183.568 21.7788L183.475 21.8306L183.386 21.8721L183.293 21.9084L183.194 21.9343L183.09 21.9499H182.997H172.973V24.7806H182.997C183.132 24.7806 183.257 24.7754 183.376 24.765C183.496 24.7546 183.626 24.7339 183.75 24.708C183.87 24.6821 183.994 24.651 184.114 24.6147C184.228 24.5836 184.348 24.5369 184.467 24.4902C184.587 24.4436 184.701 24.3866 184.81 24.3295C184.919 24.2725 185.029 24.2051 185.138 24.1325C185.242 24.0651 185.345 23.9874 185.444 23.9044C185.538 23.8266 185.636 23.7385 185.725 23.6504C185.818 23.557 185.907 23.4637 185.979 23.3704C186.057 23.2719 186.135 23.1734 186.208 23.0645C186.281 22.9608 186.343 22.852 186.406 22.7431C186.463 22.629 186.52 22.515 186.567 22.4009C186.613 22.2817 186.66 22.1624 186.697 22.0432C186.733 21.9291 186.759 21.8099 186.785 21.6803C186.811 21.5559 186.826 21.4263 186.842 21.307C186.852 21.193 186.858 21.0633 186.858 20.9286C186.858 20.7938 186.852 20.6693 186.842 20.5553C186.832 20.436 186.811 20.3116 186.785 20.182C186.764 20.0628 186.733 19.9435 186.691 19.8191C186.655 19.6998 186.613 19.5806 186.567 19.4614C186.515 19.3421 186.463 19.2281 186.406 19.1244C186.354 19.0207 186.286 18.9118 186.208 18.8029C186.135 18.6941 186.063 18.5904 185.985 18.4971C185.907 18.4037 185.824 18.3104 185.73 18.2171L185.522 18.0253L185.309 17.8542L185.086 17.6987C184.945 17.6157 184.815 17.538 184.67 17.4654L184.363 17.3358C184.259 17.2943 184.15 17.258 184.036 17.2217C183.927 17.1906 183.828 17.1647 183.729 17.1439C183.626 17.1232 183.516 17.1076 183.412 17.0973C183.309 17.0869 183.194 17.0817 183.075 17.0817C182.046 17.0714 179.832 17.0765 178.133 17.0817H176.475H176.382L176.278 17.0662L176.179 17.0402C176.034 16.9884 175.925 16.9366 175.805 16.8381H175.769C175.628 16.6462 175.571 16.5788 175.493 16.3663L175.467 16.2678C175.452 16.2004 175.447 16.133 175.447 16.0708C175.462 15.8582 175.473 15.7856 175.566 15.5886C175.654 15.4486 175.696 15.3916 175.821 15.2827L175.899 15.2257L175.992 15.1687L176.08 15.1272C176.2 15.0857 176.247 15.0754 176.372 15.0546H176.475L186.27 15.0494V12.2188H176.475C176.34 12.2188 176.216 12.2239 176.096 12.2343C175.971 12.2447 175.847 12.2654 175.722 12.2913C175.592 12.3173 175.467 12.3484 175.353 12.3847C175.239 12.4209 175.119 12.4624 175 12.5143C174.88 12.5609 174.766 12.6179 174.657 12.675C174.553 12.7268 174.444 12.7942 174.329 12.872C174.22 12.9446 174.116 13.0171 174.023 13.0949C173.929 13.1675 173.836 13.2556 173.742 13.349C173.654 13.4371 173.565 13.5304 173.488 13.6289C173.404 13.7274 173.332 13.8311 173.259 13.9348C173.186 14.0385 173.124 14.1473 173.061 14.2614C173.004 14.3703 172.947 14.4843 172.9 14.6036C172.848 14.7228 172.807 14.8421 172.77 14.9561C172.734 15.0805 172.703 15.205 172.682 15.3242C172.656 15.4538 172.635 15.5782 172.625 15.6975C172.615 15.8167 172.609 15.9412 172.609 16.0759V16.2937L172.62 16.2885Z" fill="#404041"/>
<path fill-rule="evenodd" clip-rule="evenodd" d="M171.96 21.9683H165.382C164.717 21.9683 164.155 21.8646 163.677 21.6728C163.194 21.4809 162.804 21.201 162.493 20.8536C162.207 20.5478 161.978 20.1848 161.822 19.7856C161.672 19.402 161.588 18.9821 161.588 18.5518C161.588 18.0748 161.687 17.6134 161.869 17.1934C162.056 16.7631 162.326 16.3795 162.664 16.0581C162.976 15.7677 163.34 15.5292 163.786 15.3633C164.228 15.2026 164.748 15.1093 165.382 15.1093H171.96V12.2734H165.382C164.358 12.2734 163.469 12.4342 162.695 12.7193C161.931 13.0044 161.277 13.414 160.721 13.9221C160.087 14.5027 159.577 15.2182 159.224 16.0166C158.886 16.7839 158.699 17.6341 158.699 18.5258C158.699 19.3346 158.845 20.1019 159.115 20.807C159.396 21.538 159.801 22.1964 160.31 22.7459C160.902 23.394 161.63 23.9124 162.498 24.265C163.319 24.5968 164.275 24.7782 165.376 24.7782H171.955V21.9631L171.96 21.9683Z" fill="#404041"/>
<path d="M157.806 12.2773H154.906V24.7873H157.806V12.2773Z" fill="#404041"/>
<path fill-rule="evenodd" clip-rule="evenodd" d="M129.531 14.4808C129.193 13.7394 128.751 13.1899 128.19 12.8321C127.629 12.4744 126.938 12.293 126.106 12.293C125.275 12.293 124.547 12.4692 123.991 12.8321C123.435 13.1899 122.999 13.7394 122.661 14.4808L118 24.7874H121.289C121.528 24.1134 121.85 23.4498 122.131 22.7914H129.177L128.216 20.5932H123.118L125.27 15.5591C125.363 15.3414 125.493 15.1962 125.639 15.1029C125.794 15.0044 125.961 14.9681 126.127 14.9681C126.319 14.9681 126.501 15.0148 126.662 15.1237C126.808 15.2222 126.927 15.3621 127.005 15.5591L128.985 20.1577C129.655 21.6767 130.404 23.2528 131.027 24.7926H134.233L129.531 14.486V14.4808Z" fill="#404041"/>
<path fill-rule="evenodd" clip-rule="evenodd" d="M81.8543 12.3164H74.7665C74.5691 12.3164 74.4288 12.3579 74.3456 12.4356C74.2677 12.5082 74.2261 12.6378 74.2261 12.8193V21.8661L77.0997 19.165V15.1626H81.8543C82.483 15.1626 83.0026 15.2508 83.4391 15.4115C83.886 15.5722 84.2446 15.8107 84.5563 16.101C84.8941 16.4173 85.1643 16.8009 85.3462 17.226C85.528 17.6408 85.6268 18.1022 85.6268 18.574C85.6268 19.0043 85.5436 19.419 85.3929 19.8027C85.237 20.1967 85.0084 20.5596 84.7278 20.8603C84.416 21.2025 84.0263 21.4824 83.5483 21.6743C83.0754 21.8609 82.5194 21.9698 81.8543 21.9698H74.2157L71.2227 24.7849L81.8595 24.7953C82.9559 24.7953 83.9068 24.6138 84.7278 24.282C85.5956 23.9295 86.3179 23.411 86.9103 22.7682C87.4195 22.2186 87.8248 21.5602 88.1054 20.8344C88.3704 20.1345 88.5211 19.3672 88.5211 18.5584C88.5211 17.6667 88.334 16.8217 87.9963 16.0544C87.6481 15.256 87.1337 14.5457 86.5049 13.965C85.9541 13.457 85.2994 13.0474 84.5356 12.7675C83.7665 12.4823 82.8831 12.3268 81.8595 12.3268" fill="#404041"/>
<path fill-rule="evenodd" clip-rule="evenodd" d="M134.969 14.7293V24.787H137.811V15.9684L144.369 22.8377L150.927 15.9684V24.787H153.769V14.7293C153.769 14.5997 153.759 14.4701 153.738 14.3353C153.717 14.2057 153.691 14.0761 153.655 13.9516C153.53 13.5369 153.312 13.1895 153.031 12.9303C152.74 12.6555 152.382 12.4741 151.997 12.3859C151.607 12.2978 151.192 12.3082 150.781 12.4326C150.339 12.5622 149.913 12.8214 149.539 13.2206L144.374 18.6487L139.209 13.2206C138.835 12.8214 138.404 12.5622 137.962 12.4326C137.551 12.3134 137.13 12.2978 136.746 12.3859C136.361 12.4741 136.003 12.6607 135.712 12.9303C135.431 13.1947 135.213 13.5369 135.088 13.9516C135.052 14.0761 135.021 14.2057 135.005 14.3353C134.984 14.4701 134.974 14.5997 134.974 14.7293" fill="#404041"/>
<path fill-rule="evenodd" clip-rule="evenodd" d="M102.438 14.6876V24.7868H105.29V15.9319L105.94 16.5851V16.6058L112.31 22.9412L113.23 23.8951C113.604 24.2943 114.041 24.5535 114.483 24.6831C114.893 24.8076 115.314 24.8179 115.704 24.7298C116.093 24.6417 116.452 24.455 116.743 24.1854C117.023 23.921 117.242 23.5789 117.366 23.1589C117.403 23.0345 117.434 22.9049 117.45 22.7753C117.47 22.6405 117.481 22.5057 117.481 22.3813V12.282H114.628V21.1007L106.745 13.236L106.688 13.1738C106.314 12.7746 105.877 12.5153 105.436 12.3857C105.025 12.2613 104.604 12.2509 104.215 12.3391C103.825 12.4272 103.466 12.6138 103.175 12.8834C102.895 13.1478 102.677 13.4952 102.552 13.9099C102.515 14.0344 102.484 14.164 102.469 14.2936C102.448 14.4284 102.438 14.5632 102.438 14.6876Z" fill="#404041"/>
<path fill-rule="evenodd" clip-rule="evenodd" d="M93.3202 24.7873L93.2838 18.7112L87.0742 12.2773H90.7324L94.7543 16.3264L98.7815 12.2773H102.44L96.2301 18.7112L96.1937 24.7873H93.3202Z" fill="#404041"/>
</svg>
