<svg width="188" height="28" viewBox="0 0 188 28" fill="none" xmlns="http://www.w3.org/2000/svg">
<path fill-rule="evenodd" clip-rule="evenodd" d="M9.05859 4.40625C7.79227 4.40625 7.28448 4.96807 7.28448 6.09171V20.0873L0 27.0414L10.6195 27.0601V27.0476H8.92694L3.20342 27.0601L3.22222 27.0414H2.73952L9.24666 20.9363H9.29681V20.8863L9.24666 20.9363V4.41249H9.05232L9.05859 4.40625Z" fill="white"/>
<path fill-rule="evenodd" clip-rule="evenodd" d="M25.8369 0.00624378H10.4341C10.0016 0.00624378 9.69442 0.093638 9.51889 0.262184C9.34963 0.424488 9.26187 0.699154 9.26187 1.09243V20.9309L15.5057 15.0693V6.16754H25.8369C27.2035 6.16754 28.3319 6.36106 29.2785 6.71064C30.2439 7.06646 31.0276 7.57834 31.7046 8.20258C32.4381 8.88925 33.0273 9.72574 33.4223 10.6434C33.811 11.5485 34.0304 12.5411 34.0304 13.5711C34.0304 14.5012 33.8486 15.4001 33.5226 16.2304C33.1841 17.0856 32.6888 17.8659 32.0745 18.5276C31.3974 19.2704 30.5574 19.876 29.5105 20.2942C28.4886 20.7062 27.2725 20.9309 25.8306 20.9309H9.24932L2.74219 27.0361L25.8306 27.0548C28.2128 27.0548 30.2815 26.6615 32.0619 25.9436C33.9489 25.182 35.5224 24.0584 36.8075 22.6538C37.9108 21.4553 38.7947 20.0383 39.4028 18.4589C39.9796 16.942 40.3056 15.2815 40.3056 13.5274C40.3056 11.5985 39.8981 9.75695 39.1709 8.09646C38.4123 6.3673 37.3027 4.82541 35.9299 3.56444C34.7262 2.46577 33.3094 1.57934 31.6544 0.961338C29.9869 0.343335 28.0561 0 25.8369 0" fill="white"/>
<path fill-rule="evenodd" clip-rule="evenodd" d="M96.5315 24.2419L97.7289 21.4328C97.7916 21.2955 97.8731 21.2018 97.9671 21.1456C98.0674 21.0832 98.1677 21.0582 98.2743 21.0582C98.3934 21.0582 98.5125 21.0895 98.6128 21.1581C98.7006 21.2205 98.7758 21.3079 98.826 21.4328L100.168 24.5353H96.3999L96.5253 24.2419H96.5315ZM100.337 20.7961C100.13 20.3466 99.8666 20.0158 99.5218 19.7973C99.1833 19.5788 98.7633 19.4727 98.2555 19.4727C97.7477 19.4727 97.3089 19.5788 96.9704 19.7973C96.6318 20.0158 96.3686 20.3466 96.1679 20.7961L93.3281 27.0572H95.2966C95.447 26.6452 95.6351 26.2457 95.8106 25.84H100.744C100.92 26.2457 101.114 26.6452 101.277 27.0572H103.195L100.331 20.7961H100.337Z" fill="white"/>
<path fill-rule="evenodd" clip-rule="evenodd" d="M92.4566 25.4188H88.5448C88.1436 25.4188 87.8051 25.3564 87.523 25.2378C87.2346 25.1192 86.9964 24.9506 86.8083 24.7446C86.6391 24.5636 86.4949 24.3451 86.4008 24.1016C86.3068 23.8707 86.2566 23.621 86.2566 23.3588C86.2566 23.0716 86.3193 22.797 86.4259 22.541C86.5387 22.2851 86.7017 22.0479 86.9086 21.8606C87.0967 21.6858 87.3161 21.5422 87.5857 21.4424C87.849 21.3425 88.1624 21.2925 88.5448 21.2925H92.4566V19.6445H88.5448C87.9367 19.6445 87.4039 19.7382 86.9462 19.9067C86.4949 20.0753 86.1062 20.3187 85.7739 20.6184C85.3978 20.9617 85.0969 21.3862 84.8838 21.8606C84.6832 22.3163 84.5703 22.8219 84.5703 23.3463C84.5703 23.827 84.6581 24.2827 84.8148 24.7009C84.9778 25.1316 85.2223 25.5249 85.5232 25.8495C85.8742 26.2303 86.3068 26.5424 86.8271 26.7484C87.3161 26.9482 87.8803 27.0543 88.5385 27.0543H92.4503V25.4126L92.4566 25.4188Z" fill="white"/>
<path d="M83.7082 19.6445H82.0156V27.0606H83.7082V19.6445Z" fill="white"/>
<path fill-rule="evenodd" clip-rule="evenodd" d="M77.2294 21.2925C77.6118 21.2925 77.9252 21.3487 78.1885 21.4424C78.4581 21.5422 78.6775 21.6858 78.8656 21.8606C79.0724 22.0541 79.2354 22.2851 79.3483 22.541C79.4549 22.7907 79.5175 23.0716 79.5175 23.3588C79.5175 23.621 79.4674 23.8707 79.3734 24.1016C79.2793 24.3389 79.1414 24.5573 78.9659 24.7446C78.7778 24.9506 78.5396 25.1192 78.2512 25.2378C77.9628 25.3501 77.6306 25.4188 77.2294 25.4188H74.7281C74.6152 25.4188 74.5275 25.3876 74.4585 25.3127C74.3958 25.244 74.3645 25.1566 74.3645 25.0443V21.6671C74.3645 21.5547 74.3958 21.4673 74.4585 21.3987C74.5275 21.3238 74.6152 21.2925 74.7281 21.2925H77.2294ZM72.9728 19.6445C72.7785 19.6445 72.6719 19.7382 72.6719 19.9192V26.7734C72.6719 26.8795 72.6907 26.9544 72.7346 26.9981C72.7785 27.0418 72.8599 27.0606 72.9728 27.0606H77.2231C77.8751 27.0606 78.4456 26.9544 78.9345 26.7547C79.4549 26.5487 79.8811 26.2366 80.2322 25.8558C80.5331 25.5312 80.7776 25.1379 80.9406 24.7072C81.0973 24.2889 81.1851 23.8332 81.1851 23.3525C81.1851 22.8219 81.0722 22.3225 80.8716 21.8668C80.6647 21.3924 80.3576 20.9679 79.9814 20.6246C79.6492 20.325 79.2668 20.0815 78.8092 19.913C78.3515 19.7444 77.8249 19.6508 77.2106 19.6508H72.9602L72.9728 19.6445Z" fill="white"/>
<path fill-rule="evenodd" clip-rule="evenodd" d="M64.9027 19.6445C64.583 19.6445 64.3573 19.7132 64.2131 19.8505C64.069 19.9816 64 20.1939 64 20.4873V26.1804C64 26.4863 64.069 26.7047 64.2131 26.8483C64.3573 26.9919 64.583 27.0606 64.8902 27.0606H71.8487V25.4812H66.075C65.9434 25.4812 65.8431 25.4375 65.7741 25.3564C65.7114 25.2815 65.6738 25.1816 65.6738 25.063V24.1828H71.8487V22.5348H65.6738V21.7108C65.6738 21.4486 65.7992 21.2988 66.075 21.2988H71.8487V19.6508H64.9027V19.6445Z" fill="white"/>
<path fill-rule="evenodd" clip-rule="evenodd" d="M51.9688 21.0728V27.053H53.6175V21.7532L57.5669 25.8795L61.5163 21.7532V27.053H63.165V21.0728C63.165 20.9979 63.1588 20.9167 63.1462 20.8418C63.1337 20.7669 63.1212 20.692 63.0961 20.6171C63.0209 20.3736 62.8955 20.1676 62.7325 20.0178C62.5632 19.8555 62.3501 19.7494 62.1244 19.6994C61.8987 19.6495 61.648 19.6557 61.4097 19.7244C61.1527 19.7993 60.8957 19.9554 60.6763 20.1864L57.5669 23.4449L54.4575 20.1864C54.2381 19.9491 53.9811 19.7993 53.724 19.7244C53.4858 19.6557 53.2351 19.6433 53.0094 19.6994C52.7837 19.7494 52.5706 19.8617 52.4013 20.0178C52.2383 20.1739 52.1067 20.3736 52.0377 20.6171C52.0189 20.692 52.0001 20.7669 51.9876 20.8418C51.975 20.923 51.9688 20.9979 51.9688 21.0728Z" fill="white"/>
<path fill-rule="evenodd" clip-rule="evenodd" d="M170.677 5.08001C170.695 5.31098 170.72 5.5045 170.764 5.73547L170.833 6.02262L170.921 6.30353L171.028 6.58444C171.084 6.72177 171.153 6.85911 171.222 6.9902C171.291 7.12753 171.372 7.25862 171.46 7.38347C171.542 7.50832 171.636 7.63317 171.73 7.75178C171.818 7.86414 171.924 7.97651 172.037 8.08887C172.15 8.20124 172.263 8.30736 172.375 8.39475C172.488 8.48839 172.614 8.58203 172.745 8.66318C172.871 8.75057 173.002 8.82548 173.134 8.90039C173.266 8.96906 173.404 9.03773 173.548 9.09391C173.679 9.15009 173.824 9.20003 173.98 9.24372C174.118 9.28742 174.262 9.32488 174.419 9.35609C174.576 9.3873 174.726 9.41227 174.871 9.42476C175.008 9.43724 175.165 9.44348 175.328 9.44348L183.879 9.61827C183.998 9.71815 184.123 9.85549 184.224 9.98658L184.286 10.0927L184.337 10.1988L184.374 10.3112L184.406 10.4298L184.424 10.5546V10.6732V10.7856C184.374 11.1477 184.261 11.3724 183.986 11.6159L183.885 11.6908L183.772 11.7532L183.666 11.8031L183.553 11.8468L183.434 11.878L183.308 11.8968H183.196H171.103V15.3051H183.196C183.359 15.3051 183.509 15.2989 183.653 15.2864C183.797 15.2739 183.954 15.249 184.105 15.2177C184.249 15.1865 184.399 15.1491 184.543 15.1054C184.681 15.0679 184.826 15.0117 184.97 14.9556C185.114 14.8994 185.252 14.8307 185.383 14.762C185.515 14.6934 185.647 14.6122 185.778 14.5248C185.904 14.4437 186.029 14.35 186.148 14.2502C186.261 14.1565 186.38 14.0504 186.487 13.9443C186.6 13.8319 186.706 13.7196 186.794 13.6072C186.888 13.4886 186.982 13.37 187.07 13.2389C187.158 13.114 187.233 12.983 187.308 12.8519C187.377 12.7145 187.446 12.5772 187.502 12.4399C187.559 12.2963 187.615 12.1527 187.659 12.0091C187.703 11.8718 187.734 11.7282 187.766 11.5722C187.797 11.4223 187.816 11.2663 187.835 11.1227C187.847 10.9854 187.853 10.8293 187.853 10.667C187.853 10.5047 187.847 10.3549 187.835 10.2175C187.822 10.074 187.797 9.92415 187.766 9.76809C187.741 9.62451 187.703 9.48094 187.653 9.33112C187.609 9.18754 187.559 9.04396 187.502 8.90039C187.44 8.75681 187.377 8.61948 187.308 8.49463C187.245 8.36978 187.164 8.23869 187.07 8.1076C186.982 7.97651 186.894 7.85166 186.8 7.73929C186.706 7.62693 186.606 7.51457 186.493 7.4022L186.242 7.17123L185.985 6.96523L185.716 6.77796C185.546 6.67808 185.39 6.58444 185.214 6.49705L184.844 6.34098C184.719 6.29105 184.587 6.24735 184.449 6.20365C184.318 6.1662 184.199 6.13498 184.08 6.11001C183.954 6.08504 183.823 6.06632 183.697 6.05383C183.572 6.04135 183.434 6.03511 183.29 6.03511C182.048 6.02262 179.378 6.02886 177.328 6.03511H175.328H175.215L175.09 6.01638L174.971 5.98517C174.795 5.92274 174.664 5.86032 174.519 5.74171H174.476C174.306 5.51074 174.237 5.42959 174.143 5.17365L174.112 5.05504C174.093 4.97389 174.087 4.89274 174.087 4.81783C174.106 4.56189 174.118 4.47449 174.231 4.23728C174.338 4.06873 174.388 4.00007 174.538 3.86898L174.632 3.80031L174.745 3.73164L174.852 3.6817C174.996 3.63176 175.052 3.61928 175.203 3.59431H175.328L187.145 3.58806V0.179688H175.328C175.165 0.179688 175.015 0.185929 174.871 0.198414C174.72 0.210899 174.57 0.235869 174.419 0.267081C174.262 0.298294 174.112 0.335749 173.974 0.379446C173.836 0.423143 173.692 0.473082 173.548 0.535507C173.404 0.591689 173.266 0.660357 173.134 0.729024C173.009 0.791448 172.877 0.872598 172.739 0.966235C172.607 1.05363 172.482 1.14102 172.369 1.23466C172.256 1.32205 172.144 1.42818 172.031 1.54054C171.924 1.64666 171.818 1.75903 171.724 1.87763C171.623 1.99624 171.535 2.12109 171.448 2.24594C171.36 2.37079 171.285 2.50188 171.209 2.63921C171.14 2.7703 171.072 2.90764 171.015 3.05121C170.952 3.19479 170.902 3.33837 170.858 3.4757C170.815 3.62552 170.777 3.77534 170.752 3.91892C170.72 4.07498 170.695 4.22479 170.683 4.36837C170.67 4.51195 170.664 4.66177 170.664 4.82407V5.08625L170.677 5.08001Z" fill="white"/>
<path fill-rule="evenodd" clip-rule="evenodd" d="M169.877 11.9195H161.941C161.138 11.9195 160.461 11.7946 159.885 11.5637C159.302 11.3327 158.831 10.9956 158.455 10.5773C158.11 10.209 157.835 9.77207 157.647 9.2914C157.465 8.82946 157.364 8.32382 157.364 7.8057C157.364 7.23139 157.484 6.67582 157.703 6.17018C157.929 5.65206 158.255 5.19011 158.662 4.80308C159.038 4.4535 159.477 4.16635 160.016 3.96659C160.549 3.77308 161.176 3.66071 161.941 3.66071H169.877V0.246094H161.941C160.706 0.246094 159.634 0.43961 158.7 0.782945C157.778 1.12628 156.988 1.61943 156.318 2.23119C155.553 2.93035 154.938 3.7918 154.512 4.75314C154.105 5.67702 153.879 6.70079 153.879 7.77449C153.879 8.74831 154.054 9.67219 154.38 10.5212C154.719 11.4014 155.208 12.1941 155.822 12.8558C156.537 13.6361 157.415 14.2604 158.461 14.6849C159.452 15.0844 160.605 15.3029 161.934 15.3029H169.871V11.9132L169.877 11.9195Z" fill="white"/>
<path d="M152.803 0.253906H149.305V15.3169H152.803V0.253906Z" fill="white"/>
<path fill-rule="evenodd" clip-rule="evenodd" d="M118.688 2.90385C118.281 2.01118 117.748 1.34948 117.071 0.918747C116.394 0.488018 115.56 0.269531 114.557 0.269531C113.554 0.269531 112.676 0.481775 112.005 0.918747C111.335 1.34948 110.808 2.01118 110.401 2.90385L104.777 15.3138H108.746C109.034 14.5023 109.423 13.7033 109.761 12.9105H118.262L117.102 10.2637H110.952L113.548 4.20227C113.66 3.94009 113.817 3.7653 113.993 3.65294C114.181 3.53433 114.381 3.49063 114.582 3.49063C114.814 3.49063 115.033 3.54682 115.228 3.67791C115.403 3.79651 115.547 3.96506 115.641 4.20227L118.03 9.73933C118.839 11.5684 119.741 13.4661 120.494 15.3201H124.361L118.688 2.91009V2.90385Z" fill="white"/>
<path fill-rule="evenodd" clip-rule="evenodd" d="M61.1739 0.296875H52.6231C52.3848 0.296875 52.2156 0.346814 52.1153 0.440451C52.0212 0.527845 51.9711 0.683908 51.9711 0.902393V11.7955L55.4378 8.54315V3.72398H61.1739C61.9324 3.72398 62.5593 3.8301 63.0859 4.02362C63.625 4.21713 64.0576 4.50429 64.4337 4.85387C64.8412 5.23465 65.1672 5.69659 65.3866 6.20848C65.606 6.70787 65.7251 7.26345 65.7251 7.83151C65.7251 8.34964 65.6248 8.84903 65.443 9.31097C65.2549 9.7854 64.9791 10.2224 64.6406 10.5844C64.2644 10.9964 63.7943 11.3335 63.2175 11.5645C62.6471 11.7892 61.9763 11.9203 61.1739 11.9203H51.9586L48.3477 15.31L61.1801 15.3225C62.5029 15.3225 63.6501 15.104 64.6406 14.7045C65.6875 14.28 66.5589 13.6557 67.2735 12.8817C67.8879 12.22 68.3768 11.4272 68.7154 10.5532C69.0351 9.71049 69.2169 8.78661 69.2169 7.81279C69.2169 6.73908 68.9912 5.72157 68.5837 4.79768C68.1637 3.83635 67.5431 2.98113 66.7845 2.28197C66.12 1.67021 65.3302 1.17706 64.4086 0.83997C63.4808 0.496635 62.4151 0.30936 61.1801 0.30936" fill="white"/>
<path fill-rule="evenodd" clip-rule="evenodd" d="M125.254 3.20371V15.3141H128.683V4.69565L136.594 12.9669L144.506 4.69565V15.3141H147.935V3.20371C147.935 3.04765 147.922 2.89159 147.897 2.72928C147.872 2.57322 147.841 2.41716 147.797 2.26734C147.647 1.76794 147.383 1.3497 147.045 1.03758C146.694 0.706729 146.261 0.488241 145.797 0.382119C145.327 0.275998 144.825 0.288483 144.33 0.438302C143.797 0.594363 143.283 0.906486 142.832 1.38715L136.601 7.923L130.369 1.38715C129.918 0.906486 129.398 0.594363 128.865 0.438302C128.37 0.294725 127.862 0.275998 127.398 0.382119C126.934 0.488241 126.501 0.712971 126.15 1.03758C125.812 1.35594 125.549 1.76794 125.398 2.26734C125.354 2.41716 125.317 2.57322 125.298 2.72928C125.273 2.89159 125.26 3.04765 125.26 3.20371" fill="white"/>
<path fill-rule="evenodd" clip-rule="evenodd" d="M86.0078 3.15526V15.3155H89.4495V4.65345L90.2331 5.44V5.46497L97.9188 13.0932L99.0284 14.2419C99.4797 14.7225 100.006 15.0346 100.539 15.1907C101.034 15.3405 101.542 15.353 102.012 15.2469C102.483 15.1408 102.915 14.916 103.266 14.5914C103.605 14.2731 103.868 13.8611 104.018 13.3554C104.062 13.2056 104.1 13.0495 104.119 12.8935C104.144 12.7312 104.156 12.5689 104.156 12.4191V0.258766H100.715V10.8772L91.2047 1.40738L91.1358 1.33247C90.6844 0.851797 90.1578 0.539674 89.625 0.383613C89.1297 0.233794 88.622 0.221311 88.1518 0.327433C87.6816 0.433555 87.2491 0.658282 86.898 0.98289C86.5595 1.30125 86.2962 1.7195 86.1457 2.21889C86.1018 2.36871 86.0642 2.52477 86.0454 2.68083C86.0203 2.84314 86.0078 3.00544 86.0078 3.15526Z" fill="white"/>
<path fill-rule="evenodd" clip-rule="evenodd" d="M75.004 15.3169L74.9601 8.00079L67.4688 0.253906H71.8821L76.7342 5.12926L81.5926 0.253906H86.0059L78.5146 8.00079L78.4707 15.3169H75.004Z" fill="white"/>
</svg>
