<svg width="79" height="16" viewBox="0 0 79 16" fill="none" xmlns="http://www.w3.org/2000/svg">
<path d="M15.3608 15.1184C15.3044 15.0628 15.7745 14.1186 15.8309 14.0816C15.9625 14.0076 16.8463 14.0631 17.2036 13.8965C17.5609 13.7298 18.0122 12.5635 18.1626 12.1376C18.5387 11.0823 18.8208 9.95299 19.1029 8.87918C19.5354 7.28698 19.9303 5.67627 20.2499 4.06556C20.1747 3.8619 19.6106 4.01001 19.4225 4.02853L19.6294 3.08432L23.127 2.5289C21.6791 6.26872 21.4346 10.3788 19.6482 14.0075C23.4279 14.7296 26.8691 12.7116 27.6025 8.93473C28.9376 2.06605 21.7355 -0.0815694 17.072 3.93596C15.5864 5.23194 13.5743 8.54593 15.5864 10.1381C16.0001 10.4714 16.6395 10.5825 16.6583 11.2119C16.7147 12.1747 15.6616 12.4709 14.9471 11.9525C13.3863 10.8417 13.3299 8.49039 13.8188 6.82414C15.2855 1.95497 21.6039 -0.433335 26.2674 1.26995C31.9839 3.38054 31.2318 10.638 26.8691 13.6928C23.4467 16.0996 19.6106 14.9332 15.7181 15.0628C15.5864 15.0628 15.4736 15.1184 15.3232 15.1184H15.3608Z" fill="black"/>
<path d="M36.2336 12.6956V8.14119H38.4526L40.333 13.2696L42.3075 8.14119H44.376V15.3987H42.8152V10.3814L40.8972 15.3061C40.8031 15.4357 40.051 15.4172 39.8441 15.3987C39.6373 15.3801 39.6561 15.3987 39.6184 15.2691L37.644 10.2703V15.3987H36.2901C36.2901 15.3987 36.196 15.3246 36.196 15.3061V13.0289C35.2746 13.7509 33.7138 15.4542 32.4539 15.3987C31.194 15.3431 31.3633 14.0842 31.4761 13.1955C31.777 11.0664 32.7172 9.04837 33.1685 7.01184C33.1873 6.91927 33.2061 6.80818 33.1873 6.71561C32.9429 6.47493 31.6077 7.90051 31.3445 8.06713L30.5547 7.43766C31.4761 6.32682 33.3566 4.62354 34.9361 4.90125C35.5567 5.01233 35.6319 5.49369 35.5567 6.0306C35.3498 7.6228 34.3908 9.8815 33.9771 11.5478C33.5634 13.214 33.5446 13.1585 33.601 13.4732C33.6574 13.7879 33.9395 13.4732 34.1087 13.3806C34.3532 13.214 35.4627 12.1772 35.5755 12.1587C35.6883 12.1402 36.0268 12.6216 36.196 12.6771L36.2336 12.6956Z" fill="black"/>
<path d="M55.3782 8.14062L58.6502 13.0468V8.14062H60.1545V15.4166H58.5373L58.4621 15.213L55.2277 10.3993V15.4166H53.7422V8.14062H55.3782Z" fill="black"/>
<path d="M48.6261 8.04396C51.5972 7.74774 53.1015 10.1916 52.4998 12.8576C52.1613 14.3202 50.9202 15.4125 49.397 15.5236C44.3951 15.8939 44.1882 8.4883 48.6449 8.04396H48.6261ZM48.7389 9.39548C46.4447 9.71022 46.4635 14.4868 49.3782 14.1536C51.6348 13.8944 51.6724 9.00669 48.7389 9.39548Z" fill="black"/>
<path d="M64.3994 8.04659C69.5518 7.50968 69.721 15.1374 65.2268 15.5262C60.206 15.952 59.9991 8.50943 64.3994 8.04659ZM64.5122 9.39811C62.2369 9.74987 62.2557 14.4709 65.1516 14.1562C67.4833 13.9155 67.4081 8.95377 64.5122 9.39811Z" fill="black"/>
<path d="M10.9771 6.73237V8.15794C10.3002 7.82469 9.62321 7.62104 8.85222 7.6951C7.23504 7.82469 6.6709 9.43541 7.12221 10.824C7.4795 11.9533 8.7394 12.231 9.79245 11.8978V10.6018H8.47614V9.41689H11.2404V12.7309C9.84886 13.3974 7.81798 13.5825 6.55808 12.5272C5.29818 11.4719 5.14774 8.69485 6.52047 7.41739C7.74276 6.28803 9.47277 6.34358 10.9959 6.7694L10.9771 6.73237Z" fill="black"/>
<path d="M5.17024 8.08349C3.53425 7.28739 1.6162 7.71322 1.50337 9.76826C1.39054 11.8233 3.49664 12.5083 5.17024 11.5086V12.8601C2.57522 13.8598 -0.251192 12.1292 0.0178167 9.74975C0.286826 7.37028 0.648576 7.59569 1.67261 6.8986C2.69664 6.20151 4.09839 6.28764 5.17024 6.73198V8.06498V8.08349Z" fill="black"/>
<path d="M66.6175 4.65986V7.08519H65.7148V0.53125H68.0842C68.2158 0.53125 68.7236 0.734904 68.874 0.808959C70.6604 1.77169 69.7014 4.65986 67.7269 4.65986H66.6175ZM66.6175 3.84525C67.3132 3.84525 68.3663 3.9193 68.7424 3.19726C68.9868 2.7159 68.9492 1.95682 68.4979 1.60506C68.0466 1.25329 68.009 1.36438 67.915 1.36438H66.6175V3.84525Z" fill="black"/>
<path d="M74.8376 0.53125V1.36438H72.9759V7.08519H72.0921V1.36438H70.2305V0.53125H74.8376Z" fill="black"/>
<path d="M75.193 2.36227L76.0956 4.02852L76.2272 4.12109L77.2802 2.34375H78.2393C78.1264 2.78809 76.7161 4.43583 76.7349 4.73205C76.7537 5.02827 78.1264 6.54642 78.2393 7.06481H77.2238L76.2084 5.28747C75.9639 5.43558 75.1553 7.06481 75.0425 7.06481H74.1211L75.6631 4.73205L74.1775 2.34375H75.193V2.36227Z" fill="black"/>
<path d="M34.9369 2.21337C34.354 1.60241 34.7113 0.36198 35.5011 0.0657563C36.2908 -0.230467 37.3627 0.510091 36.9678 1.56539C36.6857 2.34297 35.6139 2.9169 34.9369 2.21337Z" fill="black"/>
</svg>
