<svg width="136" height="39" viewBox="0 0 136 39" fill="none" xmlns="http://www.w3.org/2000/svg">
<path fill-rule="evenodd" clip-rule="evenodd" d="M107.272 13.3069L107.259 13.1324C107.259 13.0627 107.254 12.9885 107.254 12.9187C107.254 12.6789 107.276 12.4433 107.324 12.2165C107.372 11.981 107.437 11.7586 107.528 11.5405C107.619 11.3224 107.732 11.1131 107.863 10.9168C107.993 10.7206 108.145 10.5374 108.31 10.3717C108.475 10.2059 108.658 10.0533 108.853 9.92242C109.049 9.79158 109.257 9.67818 109.474 9.59095C109.687 9.50373 109.913 9.43394 110.148 9.38597C110.374 9.34235 110.608 9.31618 110.847 9.31618H119.533V12.3169H110.847C110.808 12.3169 110.765 12.3169 110.73 12.3299C110.691 12.3387 110.652 12.3474 110.617 12.3648C110.578 12.3823 110.543 12.3997 110.513 12.4215C110.482 12.4433 110.448 12.4695 110.422 12.4957C110.396 12.5262 110.369 12.5567 110.348 12.5873C110.326 12.6222 110.309 12.657 110.291 12.6919C110.278 12.7268 110.265 12.7661 110.257 12.8053C110.248 12.8446 110.243 12.8838 110.243 12.9231C110.243 12.9623 110.243 13.006 110.257 13.0452C110.265 13.0845 110.274 13.1237 110.291 13.1586C110.304 13.1891 110.317 13.2197 110.335 13.2458L110.383 13.3113L110.417 13.3505C110.448 13.3767 110.478 13.4029 110.509 13.4247C110.539 13.4465 110.574 13.4639 110.613 13.4814C110.648 13.4944 110.687 13.5075 110.726 13.5163C110.765 13.525 110.804 13.5293 110.843 13.5293C112.073 13.5293 115.283 13.5163 116.513 13.5293C116.73 13.5293 116.926 13.5511 117.121 13.586C117.317 13.6209 117.508 13.682 117.716 13.7649L117.812 13.8041L117.995 13.887L118.168 13.9786C118.316 14.0614 118.455 14.153 118.59 14.2533C118.724 14.3536 118.855 14.467 118.972 14.5892L118.981 14.5979C119.146 14.7636 119.298 14.9468 119.428 15.1474C119.559 15.3437 119.667 15.5487 119.759 15.7668C119.845 15.9805 119.915 16.2073 119.963 16.4384C120.006 16.6652 120.032 16.9007 120.032 17.1406C120.032 17.3805 120.011 17.616 119.963 17.8428C119.915 18.0783 119.845 18.3008 119.759 18.5188C119.667 18.7369 119.554 18.9462 119.424 19.1425C119.294 19.3388 119.142 19.522 118.976 19.6877C118.811 19.8534 118.629 20.0061 118.433 20.1369C118.238 20.2678 118.029 20.3812 117.812 20.4684C117.599 20.56 117.373 20.6254 117.139 20.6734C116.913 20.717 116.678 20.7432 116.439 20.7432H107.554V17.7425H116.439C116.478 17.7425 116.522 17.7425 116.556 17.7294C116.596 17.7207 116.635 17.712 116.669 17.6945C116.704 17.6771 116.743 17.6596 116.774 17.6378C116.804 17.616 116.839 17.5898 116.865 17.5637C116.895 17.5331 116.917 17.5026 116.943 17.4721C116.965 17.4372 116.982 17.4023 117 17.3674C117.013 17.3325 117.026 17.2933 117.034 17.254C117.043 17.2148 117.047 17.1755 117.047 17.1362C117.047 17.097 117.047 17.0534 117.034 17.0141C117.026 16.9749 117.017 16.9356 117 16.9007C116.987 16.8658 116.965 16.8309 116.947 16.7961C116.926 16.7655 116.904 16.735 116.874 16.7088L116.865 16.7001C116.839 16.6739 116.808 16.6521 116.782 16.6303C116.752 16.6085 116.717 16.5911 116.687 16.578C116.652 16.5649 116.617 16.5518 116.578 16.5431C116.543 16.5344 116.504 16.53 116.465 16.53H110.852C110.613 16.53 110.378 16.5082 110.152 16.4602C109.922 16.4122 109.696 16.3425 109.479 16.2552C109.262 16.1636 109.053 16.0546 108.858 15.9238C108.662 15.7929 108.48 15.6403 108.31 15.4745C108.145 15.3088 107.993 15.1256 107.863 14.9294C107.732 14.7331 107.619 14.5237 107.528 14.3057C107.472 14.1617 107.419 14.0178 107.38 13.8695C107.341 13.7212 107.311 13.5729 107.289 13.4159L107.276 13.3156L107.272 13.3069ZM106.65 17.7163H100.724C99.6509 17.7163 98.934 17.3805 98.4474 16.844C98.013 16.373 97.7436 15.7362 97.7436 15.0471C97.7436 14.2926 98.0607 13.586 98.5821 13.0976C99.0687 12.644 99.7031 12.3561 100.724 12.3561H106.65V9.34671H100.724C98.8993 9.34671 97.5437 9.91806 96.5401 10.8427C95.4191 11.8851 94.7153 13.381 94.7153 15.0297C94.7153 16.5256 95.2671 17.869 96.1708 18.8634C97.2092 20.0061 98.6994 20.7126 100.724 20.7126H106.65V17.7207V17.7163ZM90.8702 9.34671V20.7083H93.9158V9.34671H90.8702ZM67.6343 11.196C67 9.78286 65.9442 9.09375 64.3714 9.09375C62.7986 9.09375 61.7254 9.78286 61.0911 11.196L57.0374 20.2067C56.9549 20.3899 56.9027 20.5425 56.855 20.7126H60.3525C60.3699 20.5774 60.4177 20.4422 60.4698 20.307L61.0563 18.9462H66.987L65.8964 16.4428H62.1599L63.8848 12.3736C64.0021 12.1031 64.1846 12.0203 64.3888 12.0203C64.606 12.0203 64.8059 12.1206 64.9058 12.3736L66.6481 16.4428L67.7516 18.9462L68.3556 20.3245C68.4077 20.4422 68.4555 20.56 68.4902 20.7126H71.9052C71.8531 20.5425 71.8053 20.3942 71.7228 20.2067L67.6387 11.196H67.6343ZM56.9288 9.34671H53.9657V16.6914C53.9657 16.892 53.8657 16.9923 53.7311 16.9923C53.6311 16.9923 53.5312 16.9749 53.4487 16.8571L47.9221 10.219C47.2183 9.37724 46.5492 9.09375 45.476 9.09375C43.951 9.09375 42.8474 9.81775 42.8474 11.7499V20.7083H45.8279V13.0103C45.8279 12.8097 45.9626 12.6919 46.1103 12.6919C46.2103 12.6919 46.2928 12.7443 46.3797 12.8446L52.5927 20.054C53.1271 20.6777 53.8484 20.9438 54.8042 20.9438C55.9078 20.9438 56.9288 20.2198 56.9288 18.5057V9.34671ZM34.6184 15.4135V20.7083H37.6815V15.6141L42.9908 9.73052C43.1602 9.54734 43.2254 9.46011 43.2906 9.34235H39.6236C39.5888 9.42522 39.4889 9.57787 39.3412 9.73052L36.5127 12.8402C36.4476 12.9056 36.378 12.958 36.2781 12.958C36.1782 12.958 36.1087 12.9056 36.0435 12.8402L33.1977 9.73052C33.0456 9.57787 32.9631 9.42958 32.9283 9.34235H29.1961C29.4351 9.90062 33.8537 14.563 34.6228 15.4091L34.6184 15.4135ZM17.2828 9.34671C16.7831 9.34671 16.5268 9.58659 16.5268 10.0707V17.9518L19.6333 15.0166V12.439H23.5697C24.6211 12.439 25.2728 12.7312 25.7725 13.1979C26.3069 13.6994 26.6327 14.4234 26.6327 15.2041C26.6327 15.915 26.359 16.5693 25.9115 17.0534C25.4118 17.6073 24.6732 17.9518 23.5697 17.9518H20.8846H17.8128H16.5268L13.2812 21.0223H17.1438C17.1872 21.0267 17.235 21.031 17.2828 21.031H23.5697C25.6552 21.031 27.1845 20.307 28.2533 19.1294C29.1831 18.1088 29.7523 16.7263 29.7523 15.1867C29.7523 13.4944 29.031 11.9549 27.8753 10.8819C26.8413 9.93115 25.4466 9.34235 23.5697 9.34235H17.2828V9.34671Z" fill="#6D6D6D"/>
<path fill-rule="evenodd" clip-rule="evenodd" d="M50.8549 27.764L51.7195 25.7228C51.7803 25.5876 51.8716 25.544 51.9715 25.544C52.0801 25.544 52.1801 25.5964 52.2322 25.7228L53.1055 27.764H50.8506H50.8549ZM53.6051 25.1297C53.2836 24.4188 52.7579 24.0742 51.9672 24.0742C51.1764 24.0742 50.6377 24.4188 50.3205 25.1297L48.2871 29.6525C48.2437 29.7441 48.222 29.8226 48.1959 29.9055H49.9512C49.9599 29.84 49.9859 29.7703 50.012 29.7048L50.3075 29.0201H53.6703L53.9744 29.7136C54.0005 29.7746 54.0266 29.8313 54.0396 29.9098H55.7558C55.7297 29.827 55.7037 29.7485 55.6646 29.6569L53.6138 25.134L53.6051 25.1297ZM47.7354 28.4051H44.7592C44.2204 28.4051 43.8598 28.235 43.6165 27.9646C43.3993 27.7291 43.2646 27.4064 43.2646 27.0618C43.2646 26.6824 43.4253 26.3291 43.686 26.0848C43.9293 25.858 44.2508 25.7141 44.7635 25.7141H47.7397V24.2051H44.7635C43.8468 24.2051 43.1647 24.4929 42.6607 24.9552C42.0958 25.4786 41.7439 26.2288 41.7439 27.0574C41.7439 27.8076 42.022 28.4836 42.4738 28.9808C42.9952 29.5565 43.7425 29.9098 44.7592 29.9098H47.7354V28.4095V28.4051ZM39.489 24.2051V29.9098H41.0183V24.2051H39.489ZM35.7308 25.7141C36.2434 25.7141 36.5649 25.858 36.8083 26.0848C37.0689 26.3291 37.2297 26.6824 37.2297 27.0618C37.2297 27.4064 37.095 27.7291 36.8778 27.9646C36.6345 28.235 36.2738 28.4051 35.7351 28.4051H33.9277C33.8538 28.4051 33.8191 28.3702 33.8191 28.2874V25.8319C33.8191 25.749 33.8538 25.7141 33.9277 25.7141H35.7351H35.7308ZM32.6633 24.2051C32.42 24.2051 32.294 24.3228 32.294 24.5583V29.5478C32.294 29.7921 32.42 29.9098 32.6633 29.9098H35.7308C36.7474 29.9098 37.4947 29.5565 38.0161 28.9808C38.468 28.4836 38.746 27.8076 38.746 27.0574C38.746 26.2288 38.3941 25.4786 37.8293 24.9552C37.3253 24.4929 36.6432 24.2051 35.7264 24.2051H32.659H32.6633ZM26.4069 24.2051C25.8681 24.2051 25.5987 24.458 25.5987 24.9727V29.116C25.5987 29.6481 25.8681 29.9098 26.3982 29.9098H31.5772V28.4487H27.2541C27.1629 28.4487 27.1194 28.3964 27.1194 28.2961V27.6026H31.5511V26.5035H27.1194V25.8537C27.1194 25.7621 27.1629 25.7098 27.2541 25.7098H31.5772V24.2007H26.4069V24.2051ZM16.5703 25.4001V29.9055H18.0693V26.2767L20.7674 29.1204L23.4655 26.2767V29.9055H24.9644V25.4001C24.9644 25.2736 24.947 25.1471 24.9079 25.025C24.6516 24.1658 23.5784 23.9259 22.9006 24.6499L20.7674 26.9048L18.6341 24.6499C17.9563 23.9259 16.8831 24.1614 16.6268 25.025C16.592 25.1471 16.5747 25.2736 16.5703 25.4001Z" fill="#6D6D6D"/>
<path fill-rule="evenodd" clip-rule="evenodd" d="M72.8164 11.5012V20.7082H75.8795V13.2981L81.3886 19.1032L86.8978 13.2981V20.7082H89.9609V11.5012C89.9609 11.2439 89.9218 10.9822 89.8479 10.7336C89.3265 8.97157 87.1324 8.48745 85.7464 9.96597L81.3886 14.5717L77.0308 9.96597C75.6449 8.48745 73.4507 8.97157 72.9294 10.7336C72.8555 10.9822 72.8208 11.2439 72.8164 11.5012Z" fill="#6D6D6D"/>
</svg>
