<?xml version="1.0" encoding="UTF-8"?>
<svg xmlns="http://www.w3.org/2000/svg" version="1.1" viewBox="0 0 817.5 136.3">
  <defs>
    <style>
      .cls-1 {
        fill: none;
        stroke: #7badd3;
        stroke-linecap: round;
        stroke-miterlimit: 10;
      }
    </style>
  </defs>
  <!-- Generator: Adobe Illustrator 28.7.3, SVG Export Plug-In . SVG Version: 1.2.0 Build 164)  -->
  <g>
    <g id="Layer_1">
      <g>
        <g>
          <line class="cls-1" x1="79.5" y1="74.1" x2="79.5" y2="29.9"/>
          <polyline class="cls-1" points="91 39.9 79.5 28.4 67.9 40"/>
        </g>
        <g>
          <path d="M58.6,95.5v9.4h-1.6v-9.4h1.6ZM58,95.5h4.8v1.4h-4.8v-1.4ZM58,99.2h4.5v1.4h-4.5v-1.4ZM58,103.5h4.8v1.4h-4.8v-1.4Z"/>
          <path d="M67.7,98.7v1.3h-3.6v-1.3h3.6ZM67.2,95.7c-.1,0-.2,0-.3,0s-.3,0-.3.1c0,0-.2.2-.2.3,0,.2,0,.4,0,.6v8.2h-1.4v-8.5c0-.5,0-.9.2-1.2.2-.3.4-.6.7-.7.3-.2.7-.2,1.1-.2s.5,0,.6,0,.3.1.5.2c.1,0,.2.2.3.3l-.7,1.1c0-.1-.2-.2-.3-.3Z"/>
          <path d="M71.8,98.7v1.3h-3.6v-1.3h3.6ZM71.4,95.7c-.1,0-.2,0-.3,0s-.3,0-.3.1c0,0-.2.2-.2.3,0,.2,0,.4,0,.6v8.2h-1.4v-8.5c0-.5,0-.9.2-1.2.2-.3.4-.6.7-.7.3-.2.7-.2,1.1-.2s.5,0,.6,0,.3.1.5.2c.1,0,.2.2.3.3l-.7,1.1c0-.1-.2-.2-.3-.3Z"/>
          <path d="M73.2,95.6c.2-.2.4-.3.6-.3s.5,0,.7.3c.2.2.3.4.3.6s0,.5-.3.6c-.2.2-.4.3-.7.3s-.5,0-.6-.3c-.2-.2-.3-.4-.3-.6s0-.5.3-.6ZM74.5,98.7v6.2h-1.4v-6.2h1.4Z"/>
          <path d="M77.8,102.8c.2.3.4.5.7.7.3.2.6.3,1,.3s.6,0,.8-.1.5-.2.7-.4c.2-.2.4-.3.5-.5v1.6c-.2.2-.5.4-.9.5-.4.1-.8.2-1.2.2-.6,0-1.2-.1-1.7-.4-.5-.3-.9-.7-1.2-1.1-.3-.5-.4-1-.4-1.7s.1-1.2.4-1.7c.3-.5.7-.9,1.2-1.1.5-.3,1.1-.4,1.7-.4s.8,0,1.2.2c.4.1.7.3.9.5v1.6c0-.2-.3-.4-.5-.5-.2-.2-.5-.3-.7-.4-.3,0-.5-.1-.8-.1s-.7,0-1,.3-.5.4-.7.7-.3.6-.3,1,0,.7.3,1Z"/>
          <path d="M84.1,103.5c0,.1.2.3.4.3.2,0,.4.1.6.1s.6,0,.8-.2c.2-.1.4-.3.6-.5.1-.2.2-.5.2-.8l.2.8c0,.4-.1.7-.3,1-.2.3-.5.5-.9.6-.3.1-.7.2-1.1.2s-.7,0-1.1-.2-.6-.4-.8-.7c-.2-.3-.3-.7-.3-1.1,0-.6.2-1.1.6-1.4.4-.4,1-.5,1.8-.5s.8,0,1.1.1c.3,0,.5.2.7.3.2.1.3.2.4.3v.7c-.3-.2-.6-.3-.9-.4-.3,0-.6-.1-1-.1s-.6,0-.7.1c-.2,0-.3.2-.4.3s-.1.3-.1.5,0,.4.1.5ZM82.9,99.3c.3-.2.6-.3,1.1-.5.4-.2,1-.2,1.5-.2s1,0,1.4.2c.4.2.7.4.9.7.2.3.3.6.3,1v4.4h-1.4v-4.1c0-.2,0-.4-.1-.5,0-.1-.2-.2-.3-.3-.1,0-.3-.1-.4-.2-.2,0-.3,0-.5,0-.3,0-.6,0-.8.1-.3,0-.5.1-.7.2s-.3.2-.4.2l-.6-1Z"/>
          <path d="M91.1,102.8c.2.3.4.5.7.7.3.2.6.3,1,.3s.6,0,.8-.1.5-.2.7-.4c.2-.2.4-.3.5-.5v1.6c-.2.2-.5.4-.9.5-.4.1-.8.2-1.2.2-.6,0-1.2-.1-1.7-.4-.5-.3-.9-.7-1.2-1.1-.3-.5-.4-1-.4-1.7s.1-1.2.4-1.7c.3-.5.7-.9,1.2-1.1.5-.3,1.1-.4,1.7-.4s.8,0,1.2.2c.4.1.7.3.9.5v1.6c0-.2-.3-.4-.5-.5-.2-.2-.5-.3-.7-.4-.3,0-.5-.1-.8-.1s-.7,0-1,.3-.5.4-.7.7-.3.6-.3,1,0,.7.3,1Z"/>
          <path d="M97.8,107.9h-1.5l1.6-3.7-2.5-5.5h1.7l2,4.9h-.7s1.9-4.9,1.9-4.9h1.6l-4,9.2Z"/>
        </g>
      </g>
      <g>
        <g>
          <path class="cls-1" d="M288.4,76l7,2.4c.2,0,.3,0,.3-.3l-1.4-7.3c0-.2-.2-.2-.4-.1l-5.6,4.8c-.1.1,0,.3,0,.4Z"/>
          <path class="cls-1" d="M295,74.7c2.1-.8,7.8-3.4,11.6-9.6,4.3-7.2,4.4-16.6,0-23.8-6.1-9.9-20-14.3-31-8.3-9.2,5-13.8,16.1-11.2,25.9,2.7,10.7,12.5,15.1,13.7,15.7l1.3.6,6.7-19.9"/>
          <circle class="cls-1" cx="286.4" cy="53.5" r="1.9"/>
          <line class="cls-1" x1="276" y1="42.9" x2="285.2" y2="52"/>
        </g>
        <g>
          <path d="M264,96.5v9.4h-1.6v-9.4h1.6ZM263.3,105.9v-1.5h2c.5,0,.9,0,1.3-.2.4-.1.7-.3,1-.6s.5-.6.7-1c.2-.4.2-.9.2-1.4s0-1-.2-1.4c-.2-.4-.4-.7-.7-1-.3-.3-.6-.5-1-.6-.4-.1-.8-.2-1.3-.2h-2v-1.5h2.1c1,0,1.8.2,2.5.6.7.4,1.3.9,1.7,1.6s.6,1.5.6,2.5-.2,1.8-.6,2.5c-.4.7-1,1.3-1.7,1.6-.7.4-1.6.6-2.5.6h-2.1Z"/>
          <path d="M273.5,104.5c.2.2.5.4.9.4s.5,0,.7-.2c.2-.1.4-.3.5-.5.1-.2.2-.5.2-.7v-3.8h1.5v6.2h-1.5v-1c-.2.4-.5.6-.8.8-.3.2-.7.3-1.1.3-.7,0-1.2-.2-1.6-.6s-.6-1-.6-1.8v-3.9h1.5v3.8c0,.4,0,.8.3,1Z"/>
          <path d="M280.5,105.9h-1.4v-6.2h1.4v6.2ZM281.9,101c-.1,0-.3,0-.4,0s-.4,0-.6.2-.3.3-.3.5c0,.2-.1.5-.1.8l-.5-.3c0-.5,0-.9.3-1.3.2-.4.4-.7.7-.9.3-.2.6-.3.9-.3s.4,0,.6.1c.2,0,.4.2.5.4l-.7,1.2c-.1-.1-.3-.2-.4-.2Z"/>
          <path d="M285.1,104.5c0,.1.2.3.4.3.2,0,.4.1.6.1s.6,0,.8-.2c.2-.1.4-.3.6-.5.1-.2.2-.5.2-.8l.2.8c0,.4-.1.7-.3,1-.2.3-.5.5-.9.6-.3.1-.7.2-1.1.2s-.7,0-1.1-.2-.6-.4-.8-.7c-.2-.3-.3-.7-.3-1.1,0-.6.2-1.1.6-1.4.4-.4,1-.5,1.8-.5s.8,0,1.1.1c.3,0,.5.2.7.3.2.1.3.2.4.3v.7c-.3-.2-.6-.3-.9-.4-.3,0-.6-.1-1-.1s-.6,0-.7.1c-.2,0-.3.2-.4.3s-.1.3-.1.5,0,.4.1.5ZM283.9,100.3c.3-.2.6-.3,1.1-.5.4-.2,1-.2,1.5-.2s1,0,1.4.2c.4.2.7.4.9.7.2.3.3.6.3,1v4.4h-1.4v-4.1c0-.2,0-.4-.1-.5,0-.1-.2-.2-.3-.3-.1,0-.3-.1-.4-.2-.2,0-.3,0-.5,0-.3,0-.6,0-.8.1-.3,0-.5.1-.7.2s-.3.2-.4.2l-.6-1Z"/>
          <path d="M293.5,99.7v1.3h-3.5v-1.3h3.5ZM292.4,97.5v8.4h-1.4v-8.4h1.4Z"/>
          <path d="M294.7,96.6c.2-.2.4-.3.6-.3s.5,0,.7.3c.2.2.3.4.3.6s0,.5-.3.6c-.2.2-.4.3-.7.3s-.5,0-.6-.3c-.2-.2-.3-.4-.3-.6s0-.5.3-.6ZM296,99.7v6.2h-1.4v-6.2h1.4Z"/>
          <path d="M298,101.1c.3-.5.7-.9,1.2-1.1.5-.3,1.1-.4,1.7-.4s1.2.1,1.7.4c.5.3.9.7,1.2,1.1.3.5.4,1,.4,1.7s-.1,1.2-.4,1.7c-.3.5-.7.9-1.2,1.1-.5.3-1.1.4-1.7.4s-1.2-.1-1.7-.4c-.5-.3-.9-.7-1.2-1.1-.3-.5-.4-1-.4-1.7s.1-1.2.4-1.7ZM299.3,103.8c.2.3.4.5.7.7.3.2.6.3.9.3s.7,0,.9-.3c.3-.2.5-.4.7-.7.2-.3.2-.6.2-1s0-.7-.2-1c-.2-.3-.4-.5-.7-.7-.3-.2-.6-.2-.9-.2s-.7,0-.9.2c-.3.2-.5.4-.7.7-.2.3-.2.6-.2,1s0,.7.2,1Z"/>
          <path d="M309.3,101.1c-.2-.2-.5-.3-.9-.3s-.5,0-.7.2c-.2.1-.4.3-.5.5-.1.2-.2.5-.2.7v3.8h-1.5v-6.2h1.5v1c.2-.4.5-.6.8-.8.3-.2.7-.3,1.1-.3.7,0,1.2.2,1.6.6.4.4.6,1,.6,1.8v3.9h-1.5v-3.8c0-.5,0-.8-.3-1Z"/>
        </g>
      </g>
      <g>
        <g>
          <path class="cls-1" d="M498.7,28.1c11.2,2.7,18,14,15.3,24.7-2.6,10.5-13.6,16.8-23.8,14.7-11.4-2.3-18.5-14.2-16-24.6,1.7-7,7.7-12.5,15.3-14.6"/>
          <path class="cls-1" d="M493,27.4h2"/>
          <circle class="cls-1" cx="494" cy="48" r="15.9"/>
          <path class="cls-1" d="M500.1,56.3l-5.9-3.3-5.9,3.3c0,0-.1,0-.1,0l1.4-6.6-5-4.6c0,0,0-.1,0-.1l6.7-.8,2.9-6.1c0,0,.1,0,.1,0l2.8,6.2,6.7.8c0,0,0,0,0,.1l-5,4.6,1.3,6.7c0,0,0,.1-.1,0Z"/>
          <path class="cls-1" d="M494.5,68.3l7.6,14.5c.1.2.4.2.5,0l2.7-8.3c0-.1.2-.2.3-.2l8.3,2.4c.2,0,.4-.2.3-.4l-7.5-12.6"/>
          <path class="cls-1" d="M493.5,68.7l-8,14.3c-.1.2-.4.2-.5,0l-2.4-8.4c0-.1-.2-.2-.3-.2l-8.3,2.2c-.2,0-.4-.2-.3-.4l8-12.3"/>
        </g>
        <g>
          <path d="M478.1,103.8c.2.3.5.5.8.6s.6.2,1,.2.8-.1,1.1-.4.4-.5.4-.9,0-.6-.3-.8c-.2-.2-.4-.4-.7-.5-.3-.1-.6-.3-1-.4-.2,0-.5-.2-.8-.3s-.6-.3-.8-.5c-.3-.2-.5-.5-.6-.8-.2-.3-.3-.7-.3-1.1s.1-.9.4-1.3c.3-.4.6-.7,1.1-.9.4-.2.9-.3,1.5-.3s1,0,1.5.3c.4.2.8.4,1,.8.3.3.5.6.7,1l-1.3.7c-.1-.2-.3-.5-.4-.7-.2-.2-.4-.4-.6-.5s-.5-.2-.8-.2-.8.1-1,.3c-.2.2-.3.4-.3.7s0,.5.2.7c.1.2.4.4.7.5.3.2.7.3,1.2.5.3,0,.6.2.8.4s.5.3.8.6.4.5.6.8c.1.3.2.7.2,1.1s0,.8-.3,1.2c-.2.4-.4.6-.7.9s-.6.4-1,.6-.8.2-1.2.2-1.1-.1-1.5-.3c-.5-.2-.9-.5-1.2-.9-.3-.4-.6-.8-.8-1.2l1.2-.8c.2.4.4.7.7,1Z"/>
          <path d="M485.5,104.5c0,.1.2.3.4.3.2,0,.4.1.6.1s.6,0,.8-.2c.2-.1.4-.3.6-.5.1-.2.2-.5.2-.8l.2.8c0,.4-.1.7-.3,1-.2.3-.5.5-.9.6-.3.1-.7.2-1.1.2s-.7,0-1.1-.2-.6-.4-.8-.7c-.2-.3-.3-.7-.3-1.1,0-.6.2-1.1.6-1.4.4-.4,1-.5,1.8-.5s.8,0,1.1.1c.3,0,.5.2.7.3.2.1.3.2.4.3v.7c-.3-.2-.6-.3-.9-.4-.3,0-.6-.1-1-.1s-.6,0-.7.1c-.2,0-.3.2-.4.3s-.1.3-.1.5,0,.4.1.5ZM484.3,100.3c.3-.2.6-.3,1.1-.5.4-.2,1-.2,1.5-.2s1,0,1.4.2c.4.2.7.4.9.7.2.3.3.6.3,1v4.4h-1.4v-4.1c0-.2,0-.4-.1-.5,0-.1-.2-.2-.3-.3-.1,0-.3-.1-.4-.2-.2,0-.3,0-.5,0-.3,0-.6,0-.8.1-.3,0-.5.1-.7.2s-.3.2-.4.2l-.6-1Z"/>
          <path d="M494.3,99.7v1.3h-3.6v-1.3h3.6ZM493.8,96.6c-.1,0-.2,0-.3,0s-.3,0-.3.1c0,0-.2.2-.2.3,0,.2,0,.4,0,.6v8.2h-1.4v-8.5c0-.5,0-.9.2-1.2.2-.3.4-.6.7-.7.3-.2.7-.2,1.1-.2s.5,0,.6,0,.3.1.5.2c.1,0,.2.2.3.3l-.7,1.1c0-.1-.2-.2-.3-.3Z"/>
          <path d="M496.5,105.6c-.5-.3-.9-.6-1.1-1.1s-.4-1.1-.4-1.7.1-1.2.4-1.7c.3-.5.6-.9,1.1-1.1.5-.3,1.1-.4,1.7-.4s1.2.1,1.7.4c.5.3.8.6,1.1,1.1s.4,1,.4,1.7,0,.1,0,.2,0,.1,0,.2h-5.4v-1h4.2l-.4.6c0,0,0-.1,0-.2,0,0,0-.2,0-.2,0-.3,0-.6-.2-.9-.1-.2-.3-.4-.5-.6-.2-.1-.5-.2-.8-.2s-.7,0-.9.2c-.3.2-.5.4-.6.7-.1.3-.2.7-.2,1.1,0,.4,0,.8.2,1.1.1.3.3.5.6.7.3.2.6.2,1,.2s.7,0,1-.2c.3-.2.5-.4.7-.7l1.3.5c-.3.6-.7,1-1.3,1.3s-1.1.4-1.8.4-1.2-.1-1.7-.4Z"/>
          <path d="M505.3,99.7v1.3h-3.5v-1.3h3.5ZM504.3,97.5v8.4h-1.4v-8.4h1.4Z"/>
          <path d="M507.8,108.8h-1.5l1.6-3.7-2.5-5.5h1.7l2,4.9h-.7s1.9-4.9,1.9-4.9h1.6l-4,9.2Z"/>
        </g>
      </g>
      <g>
        <g>
          <path class="cls-1" d="M704.8,31.8h8s.4,4.1,5.3,6v18.4s-.6,12.5-17,20.1"/>
          <path class="cls-1" d="M700.5,81.8c-19.9-9.2-20.6-24.4-20.6-24.4v-22.3c6-2.3,6.5-7.3,6.5-7.3h29.9s.5,5,6.5,7.3v22.3s-.7,15.2-20.6,24.4h-1.6Z"/>
          <path class="cls-1" d="M697.3,31.8h-8s-.4,4.1-5.3,6v18.4s.6,12.5,17,20.1"/>
          <line class="cls-1" x1="700.4" y1="31.8" x2="702.3" y2="31.8"/>
          <circle class="cls-1" cx="701.3" cy="52.2" r="9"/>
          <path class="cls-1" d="M697.3,52.2l2.8,2.8s.1,0,.1,0l5.6-5.6"/>
        </g>
        <g>
          <path d="M680.9,98.8c.2-.6.6-1.1,1-1.5.4-.4,1-.8,1.6-1,.6-.2,1.2-.4,1.9-.4s1.4.1,2,.4c.6.2,1.1.6,1.5,1,.4.4.8,1,1,1.5.2.6.4,1.2.4,2s-.1,1.4-.4,2c-.2.6-.6,1.1-1,1.6-.4.4-1,.8-1.5,1-.6.2-1.2.4-2,.4s-1.4-.1-2-.4c-.6-.2-1.1-.6-1.6-1-.4-.4-.8-1-1-1.6s-.4-1.3-.4-2,.1-1.4.4-2ZM682.6,102.5c.3.5.7.9,1.2,1.2.5.3,1.1.4,1.7.4s1.2-.1,1.7-.4.9-.7,1.1-1.2.4-1.1.4-1.7-.1-1.2-.4-1.8-.7-.9-1.2-1.2c-.5-.3-1.1-.5-1.7-.5s-1.2.1-1.7.4c-.5.3-.9.7-1.1,1.2s-.4,1.1-.4,1.7.1,1.3.4,1.8ZM686.8,101.4l4.2,4.1h-1.9l-4.2-4.1h1.8Z"/>
          <path d="M693.7,104.1c.2.2.5.4.9.4s.5,0,.7-.2c.2-.1.4-.3.5-.5.1-.2.2-.5.2-.7v-3.8h1.5v6.2h-1.5v-1c-.2.4-.5.6-.8.8-.3.2-.7.3-1.1.3-.7,0-1.2-.2-1.6-.6s-.6-1-.6-1.8v-3.9h1.5v3.8c0,.4,0,.8.3,1Z"/>
          <path d="M700.4,104.1c0,.1.2.3.4.3.2,0,.4.1.6.1s.6,0,.8-.2c.2-.1.4-.3.6-.5.1-.2.2-.5.2-.8l.2.8c0,.4-.1.7-.3,1-.2.3-.5.5-.9.6-.3.1-.7.2-1.1.2s-.7,0-1.1-.2-.6-.4-.8-.7c-.2-.3-.3-.7-.3-1.1,0-.6.2-1.1.6-1.4.4-.4,1-.5,1.8-.5s.8,0,1.1.1c.3,0,.5.2.7.3.2.1.3.2.4.3v.7c-.3-.2-.6-.3-.9-.4-.3,0-.6-.1-1-.1s-.6,0-.7.1c-.2,0-.3.2-.4.3s-.1.3-.1.5,0,.4.1.5ZM699.2,99.9c.3-.2.6-.3,1.1-.5.4-.2,1-.2,1.5-.2s1,0,1.4.2c.4.2.7.4.9.7.2.3.3.6.3,1v4.4h-1.4v-4.1c0-.2,0-.4-.1-.5,0-.1-.2-.2-.3-.3-.1,0-.3-.1-.4-.2-.2,0-.3,0-.5,0-.3,0-.6,0-.8.1-.3,0-.5.1-.7.2s-.3.2-.4.2l-.6-1Z"/>
          <path d="M707.5,95v10.5h-1.5v-10.5h1.5Z"/>
          <path d="M709.6,96.2c.2-.2.4-.3.6-.3s.5,0,.7.3c.2.2.3.4.3.6s0,.5-.3.6c-.2.2-.4.3-.7.3s-.5,0-.6-.3c-.2-.2-.3-.4-.3-.6s0-.5.3-.6ZM711,99.3v6.2h-1.4v-6.2h1.4Z"/>
          <path d="M715.6,99.3v1.3h-3.5v-1.3h3.5ZM714.6,97.1v8.4h-1.4v-8.4h1.4Z"/>
          <path d="M718.1,108.4h-1.5l1.6-3.7-2.5-5.5h1.7l2,4.9h-.7s1.9-4.9,1.9-4.9h1.6l-4,9.2Z"/>
        </g>
      </g>
    </g>
  </g>
</svg>