<svg width="79" height="22" viewBox="0 0 79 22" fill="none" xmlns="http://www.w3.org/2000/svg">
<path d="M24.207 15.605V9.0625H28.0929V9.84568L25.08 9.83325V11.9359H27.4965V12.7191L25.08 12.7067V14.8343L28.3839 14.8218V15.605H24.207Z" fill="black"/>
<path d="M32.0781 15.6078V9.05469H32.9511V14.8371L35.9893 14.8247V15.6078H32.0781Z" fill="black"/>
<path d="M39.4588 15.6078V9.05469H40.3318V14.8371L43.3682 14.8247V15.6078H39.457" fill="black"/>
<path d="M49.242 10.641L47.9262 13.264H50.5722L49.2438 10.641H49.242ZM51.7724 15.6154L50.9753 14.049H47.5449L46.7604 15.6154H45.8242L49.2546 8.82422L52.6977 15.6154H51.7724Z" fill="black"/>
<path d="M56.7305 10.8292L56.7558 15.6171H55.8828L55.8955 8.86328L61.2869 13.8998L61.2616 9.04975H62.1346L62.1219 15.8515L56.7305 10.8275" fill="black"/>
<path d="M66.1067 14.2141C66.3977 14.5498 67.0321 14.9973 67.9304 14.9973C68.7148 14.9973 69.3474 14.5995 69.3474 13.9282C69.3474 12.25 66.0434 12.598 66.0434 10.6072C66.0434 9.50083 67.0809 8.90234 68.1816 8.90234C69.1052 8.90234 69.7396 9.30015 70.0414 9.59851L69.5986 10.1952C69.2696 9.89686 68.7889 9.6358 68.1942 9.6358C67.5363 9.6358 66.967 9.93416 66.967 10.5682C66.967 12.0102 70.2836 11.6 70.2836 13.9264C70.2836 14.8339 69.4233 15.7556 67.9033 15.7556C66.8785 15.7556 65.9422 15.2211 65.6133 14.7984L66.1067 14.2141Z" fill="black"/>
<path d="M74.0156 15.605V9.0625H77.9015V9.84568L74.8886 9.83325V11.9359H77.3069V12.7191L74.8886 12.7067V14.8343L78.1925 14.8218V15.605H74.0156Z" fill="black"/>
<path d="M75.381 7.90701H74.5352L76.2178 5.87891H77.5842L75.381 7.90701Z" fill="black"/>
<path d="M9.91716 10.7994C9.91716 5.59771 13.9693 1.30886 19.2017 0.89329C19.3933 1.54683 19.5126 2.21813 19.565 2.89831C19.5831 3.14694 19.5939 3.39557 19.5939 3.64597C19.5939 8.02185 16.6154 11.9395 12.3517 13.1774C12.4403 13.4526 12.5451 13.719 12.6608 13.9801C17.2606 12.6144 20.4669 8.37703 20.4669 3.64597C20.4669 3.37248 20.4561 3.10076 20.4344 2.82905C20.3693 1.97127 20.2012 1.12771 19.9319 0.310787L19.8289 0L19.4963 0.0159833C13.635 0.291251 9.04239 5.02764 9.04239 10.7994C9.04239 11.7406 9.1671 12.6552 9.39844 13.5254C8.56343 13.4366 7.76275 13.2431 7.00907 12.9589C3.40513 11.6021 0.872971 8.17458 0.872971 4.1752C0.872971 3.29434 0.995874 2.42414 1.23987 1.5859C3.55514 1.77415 5.70775 2.77754 7.33079 4.4327C7.59286 4.70087 7.84228 4.98679 8.07001 5.28337C8.20556 4.99922 8.35196 4.72218 8.5074 4.45046C8.33027 4.23913 8.14954 4.03312 7.95795 3.83777C6.10176 1.94464 3.60936 0.832908 0.943459 0.708593L0.610899 0.69261L0.507877 1.0034C0.171702 2.02455 0 3.09188 0 4.1752C0 8.73044 3.0075 12.6037 7.21692 13.941C7.99952 14.1896 8.82369 14.3477 9.67678 14.4081C11.1914 18.5904 15.2598 21.5952 20.0295 21.5952V20.7375C14.4519 20.7375 9.91536 16.2799 9.91536 10.7994" fill="black"/>
</svg>
