<svg width="233" height="45" viewBox="0 0 233 45" fill="none" xmlns="http://www.w3.org/2000/svg">
<path fill-rule="evenodd" clip-rule="evenodd" d="M130 5.18868V25H136.61V9.05522L148.5 21.5464L160.39 9.05522V25H167V5.18868C167 4.63498 166.916 4.07189 166.756 3.53695C165.631 -0.254507 160.896 -1.29622 157.905 1.88523L148.5 11.7956L139.095 1.88523C136.104 -1.29622 131.369 -0.254507 130.244 3.53695C130.084 4.07189 130.009 4.63498 130 5.18868Z" fill="#AC93E1"/>
<path fill-rule="evenodd" clip-rule="evenodd" d="M82.3691 40.2197L84.2446 35.6726C84.3765 35.3714 84.5745 35.2743 84.7912 35.2743C85.0268 35.2743 85.2436 35.3909 85.3567 35.6726L87.251 40.2197H82.3597H82.3691ZM88.3348 34.3513C87.6374 32.7676 86.4971 32 84.7818 32C83.0665 32 81.8979 32.7676 81.2099 34.3513L76.7992 44.4268C76.705 44.6308 76.6578 44.8057 76.6013 44.9903H80.4088C80.4277 44.8445 80.4842 44.6891 80.5407 44.5433L81.1816 43.0179H88.4762L89.1359 44.5628C89.1925 44.6988 89.249 44.8251 89.2773 45H93C92.9435 44.8154 92.8869 44.6405 92.8021 44.4365L88.3537 34.361L88.3348 34.3513ZM75.6023 41.648H69.1465C67.9778 41.648 67.1956 41.2691 66.6678 40.6667C66.1966 40.142 65.9044 39.423 65.9044 38.6555C65.9044 37.8102 66.2531 37.0232 66.8186 36.4791C67.3464 35.9738 68.0438 35.6532 69.1559 35.6532H75.6117V32.2915H69.1559C67.1673 32.2915 65.6877 32.9327 64.5944 33.9626C63.3692 35.1286 62.6058 36.7997 62.6058 38.6457C62.6058 40.3169 63.209 41.8229 64.1892 42.9305C65.3201 44.213 66.9411 45 69.1465 45H75.6023V41.6577V41.648ZM57.7145 32.2915V45H61.0319V32.2915H57.7145ZM49.5623 35.6532C50.6744 35.6532 51.3718 35.9738 51.8995 36.4791C52.465 37.0232 52.8137 37.8102 52.8137 38.6555C52.8137 39.423 52.5216 40.142 52.0503 40.6667C51.5226 41.2691 50.7403 41.648 49.5717 41.648H45.6511C45.4908 41.648 45.4155 41.5703 45.4155 41.3856V35.9155C45.4155 35.7309 45.4908 35.6532 45.6511 35.6532H49.5717H49.5623ZM42.9085 32.2915C42.3808 32.2915 42.1074 32.5538 42.1074 33.0785V44.1936C42.1074 44.7377 42.3808 45 42.9085 45H49.5623C51.7676 45 53.3886 44.213 54.5196 42.9305C55.4997 41.8229 56.1029 40.3169 56.1029 38.6457C56.1029 36.7997 55.3395 35.1286 54.1143 33.9626C53.0211 32.9327 51.5414 32.2915 49.5528 32.2915H42.8991H42.9085ZM29.3372 32.2915C28.1685 32.2915 27.5842 32.855 27.5842 34.0015V43.2317C27.5842 44.417 28.1685 45 29.3183 45H40.5524V41.7451H31.175C30.977 41.7451 30.8828 41.6285 30.8828 41.4051V39.8602H40.4958V37.4118H30.8828V35.9641C30.8828 35.7601 30.977 35.6435 31.175 35.6435H40.5524V32.2818H29.3372V32.2915ZM8 34.9537V44.9903H11.2515V36.9066L17.1041 43.2414L22.9568 36.9066V44.9903H26.2082V34.9537C26.2082 34.6719 26.1705 34.3901 26.0857 34.1181C25.5297 32.204 23.2018 31.6697 21.7316 33.2825L17.1041 38.3057L12.4767 33.2825C11.0064 31.6697 8.67857 32.1943 8.12252 34.1181C8.04712 34.3901 8.00942 34.6719 8 34.9537Z" fill="#AC93E1"/>
<path fill-rule="evenodd" clip-rule="evenodd" d="M205.148 9.17647L205.12 8.79649C205.12 8.6445 205.11 8.48301 205.11 8.33102C205.11 7.80855 205.158 7.29558 205.262 6.80161C205.366 6.28864 205.508 5.80416 205.708 5.32919C205.907 4.85422 206.153 4.39825 206.438 3.97077C206.722 3.5433 207.054 3.14432 207.415 2.78334C207.775 2.42236 208.173 2.08988 208.6 1.8049C209.027 1.51991 209.482 1.27293 209.956 1.08294C210.421 0.892948 210.914 0.740957 211.426 0.636463C211.919 0.541469 212.431 0.484472 212.953 0.484472H231.909V7.02009H212.953C212.867 7.02009 212.773 7.02009 212.697 7.04859C212.611 7.06759 212.526 7.08659 212.45 7.12459C212.365 7.16259 212.289 7.20058 212.223 7.24808C212.156 7.29558 212.08 7.35257 212.023 7.40957C211.966 7.47607 211.91 7.54256 211.862 7.60906C211.815 7.68506 211.777 7.76105 211.739 7.83705C211.71 7.91304 211.682 7.99854 211.663 8.08403C211.644 8.16953 211.635 8.25502 211.635 8.34052C211.635 8.42601 211.635 8.52101 211.663 8.6065C211.682 8.692 211.701 8.77749 211.739 8.85349C211.767 8.91998 211.796 8.98648 211.834 9.04348L211.938 9.18597L212.014 9.27147C212.08 9.32846 212.147 9.38546 212.213 9.43296C212.279 9.48045 212.355 9.51845 212.441 9.55645C212.516 9.58495 212.602 9.61344 212.687 9.63244C212.773 9.65144 212.858 9.66094 212.943 9.66094C215.627 9.66094 222.635 9.63244 225.319 9.66094C225.793 9.66094 226.22 9.70844 226.646 9.78443C227.073 9.86043 227.49 9.99342 227.946 10.1739L228.154 10.2594L228.552 10.4399L228.932 10.6394C229.254 10.8199 229.558 11.0194 229.852 11.2379C230.146 11.4563 230.43 11.7033 230.686 11.9693L230.705 11.9883C231.065 12.3493 231.397 12.7483 231.682 13.1852C231.966 13.6127 232.203 14.0592 232.403 14.5342C232.592 14.9996 232.744 15.4936 232.848 15.9971C232.943 16.491 233 17.004 233 17.5265C233 18.049 232.953 18.5619 232.848 19.0559C232.744 19.5689 232.592 20.0533 232.403 20.5283C232.203 21.0033 231.957 21.4593 231.672 21.8867C231.388 22.3142 231.056 22.7132 230.696 23.0742C230.335 23.4351 229.937 23.7676 229.51 24.0526C229.083 24.3376 228.628 24.5846 228.154 24.7746C227.689 24.9741 227.196 25.1166 226.684 25.221C226.191 25.316 225.679 25.373 225.157 25.373H205.765V18.8374H225.157C225.243 18.8374 225.338 18.8374 225.414 18.8089C225.499 18.7899 225.584 18.7709 225.66 18.7329C225.736 18.6949 225.821 18.6569 225.888 18.6094C225.954 18.5619 226.03 18.5049 226.087 18.4479C226.153 18.3814 226.201 18.3149 226.258 18.2484C226.305 18.1725 226.343 18.0965 226.381 18.0205C226.409 17.9445 226.438 17.859 226.457 17.7735C226.476 17.688 226.485 17.6025 226.485 17.517C226.485 17.4315 226.485 17.3365 226.457 17.251C226.438 17.1655 226.419 17.08 226.381 17.004C226.352 16.928 226.305 16.852 226.267 16.776C226.22 16.7095 226.172 16.643 226.106 16.586L226.087 16.567C226.03 16.51 225.964 16.4625 225.907 16.4151C225.84 16.3676 225.764 16.3296 225.698 16.3011C225.622 16.2726 225.546 16.2441 225.461 16.2251C225.385 16.2061 225.3 16.1966 225.214 16.1966H212.962C212.441 16.1966 211.929 16.1491 211.435 16.0446C210.933 15.9401 210.44 15.7881 209.966 15.5981C209.491 15.3986 209.036 15.1611 208.609 14.8761C208.183 14.5912 207.784 14.2587 207.415 13.8977C207.054 13.5367 206.722 13.1377 206.438 12.7103C206.153 12.2828 205.907 11.8268 205.708 11.3518C205.584 11.0384 205.471 10.7249 205.385 10.4019C205.3 10.0789 205.233 9.75594 205.186 9.41396L205.158 9.19547L205.148 9.17647ZM203.792 18.7804H190.857C188.515 18.7804 186.95 18.049 185.888 16.8805C184.94 15.8546 184.352 14.4677 184.352 12.9668C184.352 11.3233 185.044 9.78444 186.182 8.7205C187.244 7.73255 188.629 7.10559 190.857 7.10559H203.792V0.550968H190.857C186.874 0.550968 183.915 1.7954 181.725 3.80928C179.278 6.07965 177.742 9.33796 177.742 12.9288C177.742 16.1871 178.946 19.1129 180.919 21.2788C183.185 23.7676 186.438 25.3065 190.857 25.3065H203.792V18.7899V18.7804ZM169.349 0.550968V25.297H175.997V0.550968H169.349ZM118.634 4.57874C117.249 1.50091 114.945 0 111.512 0C108.079 0 105.737 1.50091 104.352 4.57874L95.5044 24.2046C95.3242 24.6036 95.2104 24.9361 95.1061 25.3065H102.74C102.778 25.0121 102.882 24.7176 102.996 24.4231L104.276 21.4593H117.221L114.84 16.0066H106.685L110.45 7.14359C110.706 6.55462 111.104 6.37413 111.55 6.37413C112.024 6.37413 112.46 6.59262 112.678 7.14359L116.481 16.0066L118.89 21.4593L120.208 24.4611C120.322 24.7176 120.426 24.9741 120.502 25.3065H127.956C127.842 24.9361 127.738 24.6131 127.557 24.2046L118.643 4.57874H118.634ZM95.2673 0.550968H88.7998V16.548C88.7998 16.985 88.5817 17.2035 88.2878 17.2035C88.0696 17.2035 87.8515 17.1655 87.6713 16.909L75.6088 2.45086C74.0726 0.617464 72.6122 0 70.2698 0C66.9413 0 64.5326 1.57691 64.5326 5.78517V25.297H71.038V8.53051C71.038 8.09353 71.332 7.83705 71.6544 7.83705C71.8725 7.83705 72.0527 7.95104 72.2423 8.16953L85.8032 23.8721C86.9696 25.2305 88.5438 25.81 90.6301 25.81C93.0388 25.81 95.2673 24.2331 95.2673 20.4998V0.550968ZM46.5716 13.7647V25.297H53.2572V14.2017L64.8455 1.38692C65.2153 0.987942 65.3576 0.797954 65.4998 0.541468H57.4961C57.4202 0.721958 57.2021 1.05444 56.8797 1.38692L50.7062 8.16003C50.5639 8.30252 50.4122 8.41651 50.1941 8.41651C49.976 8.41651 49.8243 8.30252 49.682 8.16003L43.4706 1.38692C43.1387 1.05444 42.9585 0.731457 42.8826 0.541468H34.7366C35.2582 1.7574 44.9025 11.9123 46.581 13.7552L46.5716 13.7647ZM8.73394 0.550968C7.64339 0.550968 7.08388 1.07344 7.08388 2.12788V19.2934L13.8643 12.9003V7.28608H22.456C24.7509 7.28608 26.1734 7.92254 27.2639 8.93898C28.4304 10.0314 29.1416 11.6083 29.1416 13.3087C29.1416 14.8571 28.5442 16.2821 27.5674 17.3365C26.4768 18.5429 24.8647 19.2934 22.456 19.2934H16.5954H9.89088H7.08388L0 25.981H8.43048C8.52532 25.9905 8.62963 26 8.73394 26H22.456C27.0079 26 30.346 24.4231 32.6788 21.8582C34.7082 19.6354 35.9505 16.624 35.9505 13.2707C35.9505 9.58495 34.3763 6.23164 31.8538 3.89478C29.5968 1.82389 26.5527 0.541468 22.456 0.541468H8.73394V0.550968Z" fill="#AC93E1"/>
</svg>
