<?xml version="1.0" encoding="UTF-8" standalone="no"?>
<svg
   xmlns:dc="http://purl.org/dc/elements/1.1/"
   xmlns:cc="http://creativecommons.org/ns#"
   xmlns:rdf="http://www.w3.org/1999/02/22-rdf-syntax-ns#"
   xmlns:svg="http://www.w3.org/2000/svg"
   xmlns="http://www.w3.org/2000/svg"
   viewBox="0 0 432.61334 121.6"
   height="121.6"
   width="432.61334"
   xml:space="preserve"
   id="svg2"
   version="1.1"><metadata
     id="metadata8"><rdf:RDF><cc:Work
         rdf:about=""><dc:format>image/svg+xml</dc:format><dc:type
           rdf:resource="http://purl.org/dc/dcmitype/StillImage" /></cc:Work></rdf:RDF></metadata><defs
     id="defs6" /><g
     transform="matrix(1.3333333,0,0,-1.3333333,0,121.6)"
     id="g10"><g
       transform="scale(0.1)"
       id="g12"><path
         id="path14"
         style="fill:#faf7ee;fill-opacity:1;fill-rule:nonzero;stroke:none"
         d="m 1004.53,252.93 v 276.265 h 161.24 v -33.101 l -124.99,0.531 v -88.766 h 100.31 v -33.082 l -100.31,0.532 V 285.48 l 137.07,0.532 V 252.93 h -173.32" /><path
         id="path16"
         style="fill:#faf7ee;fill-opacity:1;fill-rule:nonzero;stroke:none"
         d="m 1331.13,252.93 v 276.777 h 36.25 V 285.48 l 126.04,0.532 V 252.93 h -162.29" /><path
         id="path18"
         style="fill:#faf7ee;fill-opacity:1;fill-rule:nonzero;stroke:none"
         d="m 1637.25,252.93 v 276.777 h 36.25 V 285.48 l 126.03,0.532 V 252.93 h -162.28" /><path
         id="path20"
         style="fill:#faf7ee;fill-opacity:1;fill-rule:nonzero;stroke:none"
         d="m 2043.16,462.48 -54.62,-110.812 h 109.77 z m 105.02,-210.082 -33.07,66.184 h -142.33 l -32.57,-66.184 h -38.86 l 142.32,286.77 142.88,-286.77 h -38.37" /><path
         id="path22"
         style="fill:#faf7ee;fill-opacity:1;fill-rule:nonzero;stroke:none"
         d="m 2354,454.613 1.06,-202.215 h -36.24 l 0.53,285.196 223.75,-212.715 -1.06,204.828 h 36.24 L 2577.75,242.426 2354,454.613" /><path
         id="path24"
         style="fill:#faf7ee;fill-opacity:1;fill-rule:nonzero;stroke:none"
         d="m 2743.11,311.738 c 12.09,-14.179 38.37,-33.082 75.64,-33.082 32.57,0 58.81,16.817 58.81,45.18 0,70.902 -137.07,56.191 -137.07,140.219 0,46.75 43.07,71.965 88.76,71.965 38.34,0 64.62,-16.817 77.2,-29.422 l -18.38,-25.196 c -13.65,12.586 -33.6,23.621 -58.28,23.621 -27.31,0 -50.96,-12.605 -50.96,-39.394 0,-60.914 137.6,-43.586 137.6,-141.793 0,-38.356 -35.68,-77.219 -98.74,-77.219 -42.54,0 -81.41,22.598 -95.06,40.438 l 20.48,24.683" /><path
         id="path26"
         style="fill:#faf7ee;fill-opacity:1;fill-rule:nonzero;stroke:none"
         d="m 3071.29,252.93 v 276.265 h 161.26 v -33.101 l -125.01,0.531 v -88.766 h 100.33 v -33.082 l -100.33,0.532 V 285.48 l 137.07,0.532 V 252.93 h -173.32" /><path
         id="path28"
         style="fill:#faf7ee;fill-opacity:1;fill-rule:nonzero;stroke:none"
         d="m 3127.93,577.957 h -35.1 l 69.84,85.617 h 56.72 l -91.46,-85.617" /><path
         id="path30"
         style="fill:#faf7ee;fill-opacity:1;fill-rule:nonzero;stroke:none"
         d="m 411.5,455.918 c 0,219.668 168.133,400.781 385.309,418.32 7.925,-27.57 12.921,-55.914 15.058,-84.668 0.778,-10.472 1.235,-20.992 1.235,-31.562 0,-184.77 -123.567,-350.242 -300.539,-402.551 3.664,-11.594 7.988,-22.887 12.847,-33.898 190.856,57.668 323.903,236.656 323.903,436.449 0,11.543 -0.458,23.039 -1.313,34.48 -2.707,36.239 -9.672,71.871 -20.848,106.321 l -4.265,13.16 -13.821,-0.66 C 565.824,899.672 375.289,699.641 375.289,455.918 c 0,-39.77 5.149,-78.355 14.762,-115.156 -34.625,3.777 -67.86,11.926 -99.149,23.914 -149.625,57.32 -254.6911,202.058 -254.6911,371 0,37.211 5.1133,73.914 15.2188,109.316 96.0743,-7.976 185.3793,-50.336 252.7463,-120.191 10.89,-11.305 21.215,-23.383 30.711,-35.895 5.613,11.977 11.722,23.664 18.164,35.153 -7.317,8.894 -14.856,17.621 -22.813,25.875 -77.062,79.914 -180.437,126.843 -291.0778,132.14 l -13.8164,0.66 -4.2696,-13.16 C 7.08984,826.461 0,781.406 0,735.676 0,543.324 124.828,379.727 299.488,323.258 331.949,312.762 366.16,306.109 401.578,303.512 464.434,126.852 633.25,0 831.207,0 V 36.2109 C 599.781,36.2109 411.5,224.492 411.5,455.918" /></g></g></svg>